<?xml version="1.0" encoding="utf-8"?>
<!-- Generator: Adobe Illustrator 16.0.0, SVG Export Plug-In . SVG Version: 6.00 Build 0)  -->
<!DOCTYPE svg PUBLIC "-//W3C//DTD SVG 1.1//EN" "http://www.w3.org/Graphics/SVG/1.1/DTD/svg11.dtd">
<svg version="1.1" id="Layer_1" xmlns="http://www.w3.org/2000/svg" xmlns:xlink="http://www.w3.org/1999/xlink" x="0px" y="0px"
	 width="210.509px" height="261.47px" viewBox="0 0 210.509 261.47" enable-background="new 0 0 210.509 261.47"
	 xml:space="preserve">
<path fill="#AB218E" d="M200.984,149.235c-1.073-16.784-4.965-31.603-11.68-44.46c-6.069-12.215-17.497-26.714-34.282-43.501
	l-43.255-43.253l-1.403,23.417c13.432,13.758,20.5,47.584,21.895,51.07c2.997,7.995,4,16.929,3.011,26.798
	c-2.123,20.304-9.985,114.998-27.983,132.998c-0.072,0.071-2.55,0.107-2.622,0.035C86.667,234.341,76.389,139.61,74.266,119.307
	c-0.989-9.869,0.015-18.803,3.013-26.798c1.395-3.486,10.871-36.23,24.303-49.989l-3.812-24.498L54.515,61.274
	c-16.785,16.787-28.213,31.286-34.282,43.501c-6.715,12.857-10.607,27.676-11.681,44.46c-1.555,25.159,4.646,48.044,18.604,68.651
	c-1.067,1.192,8.55,14.185,14.993,18.268c0.476,0.49,2.061,1.271,2.061,1.271c17.172,10.292,36.959,14.914,60.455,14.914
	c23.057,0,43.238-5.02,60.574-15.005l0.497,0.5c0.071-0.074,0.145-0.141,0.216-0.213c0.545-0.544,1.075-1.096,1.607-1.643
	c4.255-2.598,10.433-10.15,9.527-10.859C194.755,202.673,202.724,177.379,200.984,149.235z"/>
</svg>
