<?xml version="1.0" encoding="UTF-8" standalone="no"?>
<!-- Created with Inkscape (http://www.inkscape.org/) -->

<svg
   xmlns:dc="http://purl.org/dc/elements/1.1/"
   xmlns:cc="http://creativecommons.org/ns#"
   xmlns:rdf="http://www.w3.org/1999/02/22-rdf-syntax-ns#"
   xmlns:svg="http://www.w3.org/2000/svg"
   xmlns="http://www.w3.org/2000/svg"
   xmlns:sodipodi="http://sodipodi.sourceforge.net/DTD/sodipodi-0.dtd"
   xmlns:inkscape="http://www.inkscape.org/namespaces/inkscape"
   width="71.375999mm"
   height="71.375999mm"
   viewBox="0 0 252.90708 252.90708"
   id="svg2"
   version="1.1"
   inkscape:version="0.91 r13725"
   sodipodi:docname="adele_icons-06.svg">
  <defs
     id="defs4">
    <clipPath
       clipPathUnits="userSpaceOnUse"
       id="clipPath18">
      <path
         d="m 0,326.957 809.565,0 L 809.565,0 0,0 Z"
         id="path16"
         inkscape:connector-curvature="0" />
    </clipPath>
  </defs>
  <sodipodi:namedview
     id="base"
     pagecolor="#ffffff"
     bordercolor="#666666"
     borderopacity="1.0"
     inkscape:pageopacity="0.0"
     inkscape:pageshadow="2"
     inkscape:zoom="0.9899495"
     inkscape:cx="-253.90112"
     inkscape:cy="121.40412"
     inkscape:document-units="mm"
     inkscape:current-layer="layer1"
     showgrid="false"
     inkscape:window-width="1920"
     inkscape:window-height="1056"
     inkscape:window-x="0"
     inkscape:window-y="24"
     inkscape:window-maximized="1"
     fit-margin-top="0"
     fit-margin-left="0"
     fit-margin-right="0"
     fit-margin-bottom="0" />
  <metadata
     id="metadata7">
    <rdf:RDF>
      <cc:Work
         rdf:about="">
        <dc:format>image/svg+xml</dc:format>
        <dc:type
           rdf:resource="http://purl.org/dc/dcmitype/StillImage" />
        <dc:title></dc:title>
      </cc:Work>
    </rdf:RDF>
  </metadata>
  <g
     inkscape:label="Layer 1"
     inkscape:groupmode="layer"
     id="layer1"
     transform="translate(-241.42647,-6.4854088)">
    <path
       style="fill:#ff008e;fill-opacity:0.85018723"
       id="path2-6"
       d="m 464.09598,146.9743 c -1.073,-16.784 -4.965,-31.603 -11.68,-44.46 -6.069,-12.214997 -17.497,-26.714007 -34.282,-43.501007 l -43.255,-43.253 -1.403,23.417 c 13.432,13.758 20.5,47.584 21.895,51.07001 2.997,7.995 4,16.928997 3.011,26.797997 -2.123,20.304 -9.985,114.998 -27.983,132.998 -0.072,0.071 -2.55,0.107 -2.622,0.035 -17.998,-17.998 -28.276,-112.729 -30.399,-133.032 -0.989,-9.869 0.015,-18.802997 3.013,-26.797997 1.395,-3.48601 10.871,-36.23001 24.303,-49.98901 l -3.812,-24.498 -43.255,43.252 c -16.785,16.787 -28.213,31.28601 -34.282,43.501007 -6.715,12.857 -10.607,27.676 -11.681,44.46 -1.555,25.159 4.646,48.044 18.604,68.651 -1.067,1.192 8.55,14.185 14.993,18.268 0.476,0.49 2.061,1.271 2.061,1.271 17.172,10.292 36.959,14.914 60.455,14.914 23.057,0 43.238,-5.02 60.574,-15.005 l 0.497,0.5 c 0.071,-0.074 0.145,-0.141 0.216,-0.213 0.545,-0.544 1.075,-1.096 1.607,-1.643 4.255,-2.598 10.433,-10.15 9.527,-10.859 17.669,-22.446 25.638,-47.74 23.898,-75.884 z"
       inkscape:connector-curvature="0" />
  </g>
</svg>
