<?xml version="1.0" encoding="utf-8"?>
<!-- Generator: Adobe Illustrator 16.0.0, SVG Export Plug-In . SVG Version: 6.00 Build 0)  -->
<!DOCTYPE svg PUBLIC "-//W3C//DTD SVG 1.1//EN" "http://www.w3.org/Graphics/SVG/1.1/DTD/svg11.dtd">
<svg version="1.1" id="Layer_1" xmlns="http://www.w3.org/2000/svg" xmlns:xlink="http://www.w3.org/1999/xlink" x="0px" y="0px"
	 width="283.465px" height="261.47px" viewBox="0 0 283.465 261.47" enable-background="new 0 0 283.465 261.47"
	 xml:space="preserve">
<g>
	<polygon fill="#AB218E" points="264.275,7.821 233.742,12.598 244.597,22.986 198.199,70.338 202.49,74.629 248.093,27.436 
		259.498,38.354 	"/>
	<polygon fill="#AB218E" points="274.433,42.818 243.9,47.596 254.755,57.984 208.357,105.336 212.647,109.627 258.25,62.434 
		269.656,73.352 	"/>
	<path fill="#AB218E" d="M181.978,163.193c10.589,9.951,18.274,21.834,21.438,35.584c2.941,12.814-4.718,22.182-14.754,33.068
		c-4.389-13.178-8.089-24.799-12.139-36.322c-4.453-12.67-13.293-22.295-23.992-28.83c0.153,12.928,1.541,26.49,0.153,39.818
		c-1.593,15.299-5.942,30.629-21.743,39.363c-6.592,3.65-15.104,4.428-22.739,6.504c-0.697-0.637-1.396-1.273-2.096-1.91
		c5.749-10.299,11.85-20.453,17.105-30.961c3.101-6.197,5.689-12.818,6.954-19.494c1.164-6.133,0.247-12.6,0.247-20.355
		c-6.096,7.006-10.874,13.35-16.585,18.906c-13.011,12.658-27.871,22.736-47.157,26.328c-7.721,1.441-14.672,0.52-21.185-3.34
		c-4.335-2.574-8.559-5.299-14.986-9.291c13.317-4.123,24.621-8.496,36.4-11.043c15.985-3.459,27.054-12.098,35.704-23.039
		c-13.238,0.434-26.586,1.43-39.907,1.146c-13.449-0.283-25.987-4.117-37.567-10.684c-12.843-7.279-14.572-18.836-16.097-33.102
		c13.302,6.387,25.188,11.873,36.841,17.744c12.944,6.531,26.508,6.408,42.302,4.625c-18.202-10.459-32.168-22.357-41.82-38.02
		c-6.519-10.566-11.745-21.694-6.733-33.893c2.442-5.947,7.174-11.113,10.868-16.631c0.809-0.113,1.617-0.221,2.425-0.327
		c4.027,11.241,8.644,22.348,11.927,33.765c3.965,13.783,13.884,22.936,26.458,31.779c-1.252-6.681-2.795-12.359-3.306-18.113
		c-1.854-20.876,0.749-40.788,15.941-57.863c7.694-8.649,18.839-8.735,31.536-9.351c-5.734,10.234-11.977,20.265-17.012,30.778
		c-3.365,7.021-5.616,14.628-7.203,22.17c-1.097,5.209-0.212,10.759-0.212,18.141c2.298-2.709,3.427-3.902,4.391-5.197
		c11.9-15.957,26.672-28.76,46.344-36.741c18.019-7.306,33.364-4.25,48.403,9.576c-13.576,3.939-26.167,7.985-39.005,11.208
		c-10.716,2.688-18.9,8.521-26.448,15.41c-2.41,2.195-4.282,4.887-6.393,7.339c11.207-0.819,22.249-2.077,33.317-2.317
		c13.464-0.289,26.463,2.58,38.466,8.093c16.039,7.376,21.556,16.282,21.402,35.659c-12.006-5.641-23.324-10.619-34.27-16.202
		c-11.171-5.7-22.975-7.676-35.533-6.616c-2.392,0.203-4.731,0.852-6.383,1.156C164.049,148.66,173.652,155.361,181.978,163.193z"/>
</g>
</svg>
