<?xml version="1.0" encoding="UTF-8" standalone="no"?>
<!-- Generator: Adobe Illustrator 16.0.0, SVG Export Plug-In . SVG Version: 6.00 Build 0)  -->

<svg
   xmlns:dc="http://purl.org/dc/elements/1.1/"
   xmlns:cc="http://creativecommons.org/ns#"
   xmlns:rdf="http://www.w3.org/1999/02/22-rdf-syntax-ns#"
   xmlns:svg="http://www.w3.org/2000/svg"
   xmlns="http://www.w3.org/2000/svg"
   xmlns:sodipodi="http://sodipodi.sourceforge.net/DTD/sodipodi-0.dtd"
   xmlns:inkscape="http://www.inkscape.org/namespaces/inkscape"
   version="1.1"
   id="Layer_1"
   x="0px"
   y="0px"
   width="283.465px"
   height="243.448px"
   viewBox="0 0 283.465 243.448"
   enable-background="new 0 0 283.465 243.448"
   xml:space="preserve"
   sodipodi:docname="adele_icons-07.svg"
   inkscape:version="0.92.2 (5c3e80d, 2017-08-06)"><metadata
     id="metadata9"><rdf:RDF><cc:Work
         rdf:about=""><dc:format>image/svg+xml</dc:format><dc:type
           rdf:resource="http://purl.org/dc/dcmitype/StillImage" /></cc:Work></rdf:RDF></metadata><defs
     id="defs7" /><sodipodi:namedview
     pagecolor="#ffffff"
     bordercolor="#666666"
     borderopacity="1"
     objecttolerance="10"
     gridtolerance="10"
     guidetolerance="10"
     inkscape:pageopacity="0"
     inkscape:pageshadow="2"
     inkscape:window-width="835"
     inkscape:window-height="480"
     id="namedview5"
     showgrid="false"
     inkscape:zoom="0.96940621"
     inkscape:cx="141.7325"
     inkscape:cy="121.724"
     inkscape:window-x="0"
     inkscape:window-y="33"
     inkscape:window-maximized="0"
     inkscape:current-layer="Layer_1" /><path
     fill="#AB218E"
     d="M262.509,117.284l10.363-32.172L54.097,14.642L43.734,46.813L79.019,58.18l-5.754,51.173  c-7.425-4.178-16.291-5.925-25.35-4.353c-20.86,3.631-34.815,23.478-31.178,44.333c3.626,20.857,23.474,34.823,44.324,31.19  c14.612-2.544,25.801-13.057,29.974-26.266l22.86-84.845l78.362,25.033c0.845,5.195-8.214,66.593-8.214,66.593  c-7.427-4.18-16.292-5.928-25.351-4.356c-20.859,3.634-34.814,23.479-31.177,44.334c3.626,20.856,23.474,34.824,44.323,31.189  c14.612-2.543,25.802-13.054,29.973-26.264l23.819-100.838L262.509,117.284z"
     id="path2"
     style="fill:#f48f42;fill-opacity:1" /></svg>