<?xml version="1.0" encoding="UTF-8" standalone="no"?>
<!-- Created with Inkscape (http://www.inkscape.org/) -->

<svg
   xmlns:dc="http://purl.org/dc/elements/1.1/"
   xmlns:cc="http://creativecommons.org/ns#"
   xmlns:rdf="http://www.w3.org/1999/02/22-rdf-syntax-ns#"
   xmlns:svg="http://www.w3.org/2000/svg"
   xmlns="http://www.w3.org/2000/svg"
   xmlns:sodipodi="http://sodipodi.sourceforge.net/DTD/sodipodi-0.dtd"
   xmlns:inkscape="http://www.inkscape.org/namespaces/inkscape"
   width="71.375999mm"
   height="71.375999mm"
   viewBox="0 0 252.90708 252.90708"
   id="svg2"
   version="1.1"
   inkscape:version="0.91 r13725"
   sodipodi:docname="adele_icons-07.svg">
  <defs
     id="defs4">
    <clipPath
       clipPathUnits="userSpaceOnUse"
       id="clipPath18">
      <path
         d="m 0,326.957 809.565,0 L 809.565,0 0,0 Z"
         id="path16"
         inkscape:connector-curvature="0" />
    </clipPath>
  </defs>
  <sodipodi:namedview
     id="base"
     pagecolor="#ffffff"
     bordercolor="#666666"
     borderopacity="1.0"
     inkscape:pageopacity="0.0"
     inkscape:pageshadow="2"
     inkscape:zoom="0.49497475"
     inkscape:cx="-364.85763"
     inkscape:cy="-139.75152"
     inkscape:document-units="mm"
     inkscape:current-layer="layer1"
     showgrid="false"
     inkscape:window-width="1920"
     inkscape:window-height="1056"
     inkscape:window-x="0"
     inkscape:window-y="24"
     inkscape:window-maximized="1"
     fit-margin-top="0"
     fit-margin-left="0"
     fit-margin-right="0"
     fit-margin-bottom="0" />
  <metadata
     id="metadata7">
    <rdf:RDF>
      <cc:Work
         rdf:about="">
        <dc:format>image/svg+xml</dc:format>
        <dc:type
           rdf:resource="http://purl.org/dc/dcmitype/StillImage" />
        <dc:title></dc:title>
      </cc:Work>
    </rdf:RDF>
  </metadata>
  <g
     inkscape:label="Layer 1"
     inkscape:groupmode="layer"
     id="layer1"
     transform="translate(-202.03052,-54.972744)">
    <path
       style="fill:#f48f42;fill-opacity:1"
       id="path2"
       d="m 444.15858,175.12538 10.1594,-31.53993 -214.47682,-69.08549 -10.1594,31.53894 34.59177,11.14368 -5.64096,50.16761 c -7.27912,-4.09591 -15.97093,-5.80859 -24.85195,-4.26747 -20.45017,3.55966 -34.131,23.01673 -30.56545,43.462 3.55476,20.44722 23.01281,34.13885 43.45317,30.57722 14.32492,-2.49402 25.2941,-12.80048 29.38511,-25.74996 l 22.41088,-83.17807 76.82244,24.54118 c 0.82839,5.09293 -8.05263,65.28466 -8.05263,65.28466 -7.28108,-4.09788 -15.97191,-5.81153 -24.85293,-4.27042 -20.44919,3.56261 -34.13002,23.01773 -30.56447,43.46299 3.55476,20.44625 23.01281,34.13983 43.45219,30.57624 14.32492,-2.49304 25.29508,-12.79753 29.38413,-25.748 l 23.35107,-98.85687 36.15445,11.94169 z"
       inkscape:connector-curvature="0" />
  </g>
</svg>
