<?xml version="1.0" encoding="utf-8"?>
<!-- Generator: Adobe Illustrator 16.0.0, SVG Export Plug-In . SVG Version: 6.00 Build 0)  -->
<!DOCTYPE svg PUBLIC "-//W3C//DTD SVG 1.1//EN" "http://www.w3.org/Graphics/SVG/1.1/DTD/svg11.dtd">
<svg version="1.1" id="Layer_1" xmlns="http://www.w3.org/2000/svg" xmlns:xlink="http://www.w3.org/1999/xlink" x="0px" y="0px"
	 width="252.906px" height="215.405px" viewBox="0 0 252.906 215.405" enable-background="new 0 0 252.906 215.405"
	 xml:space="preserve">
<g>
	<path fill="#AB218E" d="M173.575,193.905c-0.017-0.012-0.035-0.026-0.051-0.038c-0.6,0.228-1.201,0.451-1.806,0.667
		C172.334,194.322,172.963,194.13,173.575,193.905z"/>
	<g>
		<path fill="#AB218E" d="M66.721,96.953c-8.458-10.962-38.78-69.792-38.88-87.825H15.114v60.14c0,23.243,2.315,41.824,6.882,55.229
			c4.466,14.385,12.145,27.585,22.839,39.27c11.337,12.431,24.729,21.721,39.814,27.626c1.986-1.48,3.983-2.95,5.98-4.415
			c10.57-7.762,31.555-25.367,32.671-26.304c0.253-0.247,1.602-1.554,3.152-3.015C111.703,143.929,79.22,113.149,66.721,96.953z"/>
		<path fill="#AB218E" d="M123.301,160.674c-1.116,0.937-22.101,18.542-32.671,26.304c-1.997,1.465-3.994,2.935-5.98,4.415
			c-15.085-5.905-28.478-15.195-39.814-27.626c-10.694-11.685-18.373-24.885-22.839-39.27c-4.567-13.405-6.882-31.986-6.882-55.229
			V9.128h12.727c0.101,18.033,30.422,76.863,38.88,87.825c12.499,16.196,44.981,46.976,59.732,60.706
			C124.903,159.12,123.554,160.427,123.301,160.674z"/>
	</g>
	<polygon fill="#AB218E" points="86.195,193.727 86.194,193.727 86.194,193.727 	"/>
	<path fill="#AB218E" d="M229.628,8.067c0.764,9.102-8.991,31.783-14.978,44.704c-8.384,18.093-18.771,37.215-23.646,43.534
		c-12.986,16.826-48.367,50.132-61.298,62.139c-2.939,2.729-5.166,4.767-5.166,4.767s-21.366,18.025-32.256,26.019
		c-2.033,1.493-4.067,2.988-6.089,4.497h0.001c12.688,4.499,26.787,6.779,41.925,6.779c16.122,0,30.909-2.504,44.294-7.465
		c16.11-5.971,30.189-15.502,42.096-28.557c10.801-11.803,18.559-25.137,23.058-39.632c4.608-13.527,6.943-32.225,6.943-55.585
		v-61.2H229.628z"/>
	<path fill="#FFFFFF" d="M86.194,193.727L86.194,193.727c-0.214-0.08-0.429-0.158-0.644-0.241c-0.187,0.141-0.375,0.28-0.561,0.42
		c13.07,4.785,27.447,7.179,43.131,7.179c0.39,0,0.774-0.01,1.162-0.012C113.582,200.958,99.221,198.508,86.194,193.727
		L86.194,193.727z"/>
	<path fill="#FFFFFF" d="M128.12,200.506c-15.138,0-29.237-2.28-41.925-6.779c13.026,4.781,27.387,7.231,43.087,7.346
		c15.959-0.117,30.538-2.646,43.732-7.587c-0.199-0.147-0.399-0.297-0.6-0.444C159.029,198.002,144.242,200.506,128.12,200.506z"/>
</g>
</svg>
