<?xml version="1.0" encoding="UTF-8" standalone="no"?>
<!-- Generator: Adobe Illustrator 16.0.0, SVG Export Plug-In . SVG Version: 6.00 Build 0)  -->

<svg
   xmlns:dc="http://purl.org/dc/elements/1.1/"
   xmlns:cc="http://creativecommons.org/ns#"
   xmlns:rdf="http://www.w3.org/1999/02/22-rdf-syntax-ns#"
   xmlns:svg="http://www.w3.org/2000/svg"
   xmlns="http://www.w3.org/2000/svg"
   xmlns:sodipodi="http://sodipodi.sourceforge.net/DTD/sodipodi-0.dtd"
   xmlns:inkscape="http://www.inkscape.org/namespaces/inkscape"
   version="1.1"
   id="Layer_1"
   x="0px"
   y="0px"
   width="252.906px"
   height="215.405px"
   viewBox="0 0 252.906 215.405"
   enable-background="new 0 0 252.906 215.405"
   xml:space="preserve"
   sodipodi:docname="adele_icons-05.svg"
   inkscape:version="0.92.2 (5c3e80d, 2017-08-06)"><metadata
     id="metadata25"><rdf:RDF><cc:Work
         rdf:about=""><dc:format>image/svg+xml</dc:format><dc:type
           rdf:resource="http://purl.org/dc/dcmitype/StillImage" /></cc:Work></rdf:RDF></metadata><defs
     id="defs23" /><sodipodi:namedview
     pagecolor="#ffffff"
     bordercolor="#666666"
     borderopacity="1"
     objecttolerance="10"
     gridtolerance="10"
     guidetolerance="10"
     inkscape:pageopacity="0"
     inkscape:pageshadow="2"
     inkscape:window-width="1600"
     inkscape:window-height="831"
     id="namedview21"
     showgrid="false"
     inkscape:zoom="1.0956106"
     inkscape:cx="18.294137"
     inkscape:cy="107.7025"
     inkscape:window-x="0"
     inkscape:window-y="33"
     inkscape:window-maximized="1"
     inkscape:current-layer="Layer_1" /><path
     style="fill:#ab218e"
     inkscape:connector-curvature="0"
     id="path2"
     d="m 173.575,193.905 c -0.017,-0.012 -0.035,-0.026 -0.051,-0.038 -0.6,0.228 -1.201,0.451 -1.806,0.667 0.616,-0.212 1.245,-0.404 1.857,-0.629 z" /><path
     d="M 66.721,96.953 C 58.263,85.991 27.941,27.161 27.841,9.128 H 15.114 v 60.14 c 0,23.243 2.315,41.824 6.882,55.229 4.466,14.385 12.145,27.585 22.839,39.27 11.337,12.431 24.729,21.721 39.814,27.626 1.986,-1.48 3.983,-2.95 5.98,-4.415 10.57,-7.762 31.555,-25.367 32.671,-26.304 0.253,-0.247 1.602,-1.554 3.152,-3.015 -14.749,-13.73 -47.232,-44.51 -59.731,-60.706 z"
     id="path4"
     inkscape:connector-curvature="0"
     style="fill:#ab218e" /><path
     d="m 123.301,160.674 c -1.116,0.937 -22.101,18.542 -32.671,26.304 -1.997,1.465 -3.994,2.935 -5.98,4.415 C 69.565,185.488 56.172,176.198 44.836,163.767 34.142,152.082 26.463,138.882 21.997,124.497 17.43,111.092 15.115,92.511 15.115,69.268 V 9.128 h 12.727 c 0.101,18.033 30.422,76.863 38.88,87.825 12.499,16.196 44.981,46.976 59.732,60.706 -1.551,1.461 -2.9,2.768 -3.153,3.015 z"
     id="path6"
     inkscape:connector-curvature="0"
     style="fill:#3895ff;fill-opacity:1" /><polygon
     style="fill:#ab218e"
     id="polygon10"
     points="86.194,193.727 86.195,193.727 86.194,193.727 " /><path
     style="fill:#3895ff;fill-opacity:1"
     inkscape:connector-curvature="0"
     id="path12"
     d="m 229.628,8.067 c 0.764,9.102 -8.991,31.783 -14.978,44.704 -8.384,18.093 -18.771,37.215 -23.646,43.534 -12.986,16.826 -48.367,50.132 -61.298,62.139 -2.939,2.729 -5.166,4.767 -5.166,4.767 0,0 -21.366,18.025 -32.256,26.019 -2.033,1.493 -4.067,2.988 -6.089,4.497 h 0.001 c 12.688,4.499 26.787,6.779 41.925,6.779 16.122,0 30.909,-2.504 44.294,-7.465 16.11,-5.971 30.189,-15.502 42.096,-28.557 10.801,-11.803 18.559,-25.137 23.058,-39.632 4.608,-13.527 6.943,-32.225 6.943,-55.585 v -61.2 z" /><path
     style="fill:#ffffff"
     inkscape:connector-curvature="0"
     id="path14"
     d="m 86.194,193.727 v 0 c -0.214,-0.08 -0.429,-0.158 -0.644,-0.241 -0.187,0.141 -0.375,0.28 -0.561,0.42 13.07,4.785 27.447,7.179 43.131,7.179 0.39,0 0.774,-0.01 1.162,-0.012 -15.7,-0.115 -30.061,-2.565 -43.088,-7.346 z" /><path
     style="fill:#ffffff"
     inkscape:connector-curvature="0"
     id="path16"
     d="m 128.12,200.506 c -15.138,0 -29.237,-2.28 -41.925,-6.779 13.026,4.781 27.387,7.231 43.087,7.346 15.959,-0.117 30.538,-2.646 43.732,-7.587 -0.199,-0.147 -0.399,-0.297 -0.6,-0.444 -13.385,4.96 -28.172,7.464 -44.294,7.464 z" /></svg>