<?xml version="1.0" encoding="utf-8"?>
<!-- Generator: Adobe Illustrator 16.0.0, SVG Export Plug-In . SVG Version: 6.00 Build 0)  -->
<!DOCTYPE svg PUBLIC "-//W3C//DTD SVG 1.1//EN" "http://www.w3.org/Graphics/SVG/1.1/DTD/svg11.dtd">
<svg version="1.1" id="Layer_1" xmlns="http://www.w3.org/2000/svg" xmlns:xlink="http://www.w3.org/1999/xlink" x="0px" y="0px"
	 width="283.465px" height="243.448px" viewBox="0 0 283.465 243.448" enable-background="new 0 0 283.465 243.448"
	 xml:space="preserve">
<path fill="#AB218E" d="M262.509,117.284l10.363-32.172L54.097,14.642L43.734,46.813L79.019,58.18l-5.754,51.173
	c-7.425-4.178-16.291-5.925-25.35-4.353c-20.86,3.631-34.815,23.478-31.178,44.333c3.626,20.857,23.474,34.823,44.324,31.19
	c14.612-2.544,25.801-13.057,29.974-26.266l22.86-84.845l78.362,25.033c0.845,5.195-8.214,66.593-8.214,66.593
	c-7.427-4.18-16.292-5.928-25.351-4.356c-20.859,3.634-34.814,23.479-31.177,44.334c3.626,20.856,23.474,34.824,44.323,31.189
	c14.612-2.543,25.802-13.054,29.973-26.264l23.819-100.838L262.509,117.284z"/>
</svg>
