<?xml version="1.0" encoding="UTF-8" standalone="no"?>
<!-- Created with Inkscape (http://www.inkscape.org/) -->

<svg
   xmlns:dc="http://purl.org/dc/elements/1.1/"
   xmlns:cc="http://creativecommons.org/ns#"
   xmlns:rdf="http://www.w3.org/1999/02/22-rdf-syntax-ns#"
   xmlns:svg="http://www.w3.org/2000/svg"
   xmlns="http://www.w3.org/2000/svg"
   xmlns:sodipodi="http://sodipodi.sourceforge.net/DTD/sodipodi-0.dtd"
   xmlns:inkscape="http://www.inkscape.org/namespaces/inkscape"
   width="146.53499mm"
   height="146.53499mm"
   viewBox="0 0 519.21846 519.21846"
   id="svg2"
   version="1.1"
   inkscape:version="0.91 r13725"
   sodipodi:docname="Alt-Colour.svg">
  <defs
     id="defs4">
    <marker
       inkscape:stockid="TriangleOutL"
       orient="auto"
       refY="0"
       refX="0"
       id="TriangleOutL"
       style="overflow:visible"
       inkscape:isstock="true">
      <path
         id="path84385"
         d="m 5.77,0 -8.65,5 0,-10 8.65,5 z"
         style="fill:#000000;fill-opacity:1;fill-rule:evenodd;stroke:#000000;stroke-width:1pt;stroke-opacity:1"
         transform="scale(0.8,0.8)"
         inkscape:connector-curvature="0" />
    </marker>
    <marker
       inkscape:stockid="Arrow1Lend"
       orient="auto"
       refY="0"
       refX="0"
       id="marker84503"
       style="overflow:visible"
       inkscape:isstock="true">
      <path
         id="path84505"
         d="M 0,0 5,-5 -12.5,0 5,5 0,0 Z"
         style="fill:#000000;fill-opacity:1;fill-rule:evenodd;stroke:#000000;stroke-width:1pt;stroke-opacity:1"
         transform="matrix(-0.8,0,0,-0.8,-10,0)"
         inkscape:connector-curvature="0" />
    </marker>
    <marker
       inkscape:stockid="Arrow2Lend"
       orient="auto"
       refY="0"
       refX="0"
       id="Arrow2Lend"
       style="overflow:visible"
       inkscape:isstock="true">
      <path
         id="path84264"
         style="fill:#000000;fill-opacity:1;fill-rule:evenodd;stroke:#000000;stroke-width:0.625;stroke-linejoin:round;stroke-opacity:1"
         d="M 8.7185878,4.0337352 -2.2072895,0.01601326 8.7185884,-4.0017078 c -1.7454984,2.3720609 -1.7354408,5.6174519 -6e-7,8.035443 z"
         transform="matrix(-1.1,0,0,-1.1,-1.1,0)"
         inkscape:connector-curvature="0" />
    </marker>
    <marker
       inkscape:stockid="Arrow1Lend"
       orient="auto"
       refY="0"
       refX="0"
       id="Arrow1Lend"
       style="overflow:visible"
       inkscape:isstock="true">
      <path
         id="path84246"
         d="M 0,0 5,-5 -12.5,0 5,5 0,0 Z"
         style="fill:#000000;fill-opacity:1;fill-rule:evenodd;stroke:#000000;stroke-width:1pt;stroke-opacity:1"
         transform="matrix(-0.8,0,0,-0.8,-10,0)"
         inkscape:connector-curvature="0" />
    </marker>
    <symbol
       id="symbol8102">
      <title
         id="title8104">Arrow Drop Up</title>
      <path
         d="M 14,28 24,18 34,28 Z"
         style="stroke:none"
         id="path8106"
         inkscape:connector-curvature="0" />
    </symbol>
    <symbol
       id="symbol8186">
      <title
         id="title8188">Refresh</title>
      <path
         d="M 35.3,12.7 C 32.41,9.8 28.42,8 24,8 15.16,8 8.02,15.16 8.02,24 c 0,8.84 7.14,16 15.98,16 7.45,0 13.69,-5.1 15.46,-12 l -4.16,0 c -1.65,4.66 -6.07,8 -11.3,8 -6.63,0 -12,-5.37 -12,-12 0,-6.63 5.37,-12 12,-12 3.31,0 6.28,1.38 8.45,3.55 L 26,22 40,22 40,8 35.3,12.7 Z"
         style="stroke:none"
         id="path8190"
         inkscape:connector-curvature="0" />
    </symbol>
    <symbol
       id="symbol8084">
      <title
         id="title8086">Arrow Back</title>
      <path
         d="M 40,22 15.66,22 26.83,10.83 24,8 8,24 24,40 26.83,37.17 15.66,26 40,26 40,22 Z"
         style="stroke:none"
         id="path8088"
         inkscape:connector-curvature="0" />
    </symbol>
    <symbol
       id="symbol71972">
      <title
         id="title71974">Queue Music</title>
      <path
         d="m 30,12 -24,0 0,4 24,0 0,-4 z m 0,8 -24,0 0,4 24,0 0,-4 z M 6,32 22,32 22,28 6,28 6,32 Z M 34,12 34,28.37 C 33.37,28.14 32.71,28 32,28 c -3.31,0 -6,2.69 -6,6 0,3.31 2.69,6 6,6 3.31,0 6,-2.69 6,-6 l 0,-18 6,0 0,-4 -10,0 z"
         style="stroke:none"
         id="path71976"
         inkscape:connector-curvature="0" />
    </symbol>
    <symbol
       id="symbol74393">
      <title
         id="title74395">WB Sunny</title>
      <path
         d="M 13.51,9.69 9.93,6.1 7.1,8.93 10.69,12.52 13.51,9.69 Z M 8,21 2,21 2,25 8,25 8,21 Z M 26,1.1 22,1.1 22,7 26,7 26,1.1 Z M 40.9,8.93 38.07,6.1 34.48,9.69 37.31,12.52 40.9,8.93 Z m -6.41,27.38 3.59,3.59 2.83,-2.83 -3.59,-3.59 -2.83,2.83 z M 40,21 l 0,4 6,0 0,-4 -6,0 z M 24,11 c -6.63,0 -12,5.37 -12,12 0,6.63 5.37,12 12,12 6.63,0 12,-5.37 12,-12 0,-6.63 -5.37,-12 -12,-12 z m -2,33.9 4,0 0,-5.9 -4,0 0,5.9 z M 7.1,37.07 9.93,39.9 13.52,36.31 10.69,33.48 7.1,37.07 Z"
         style="stroke:none"
         id="path74397"
         inkscape:connector-curvature="0" />
    </symbol>
    <symbol
       id="symbol74381">
      <title
         id="title74383">WB Incandescent</title>
      <path
         d="m 7.1,37.07 2.83,2.83 3.59,-3.59 -2.83,-2.83 -3.59,3.59 z m 14.9,7.83 4,0 0,-5.9 -4,0 0,5.9 z M 8,21 2,21 2,25 8,25 8,21 Z M 30,12.62 30,3 18,3 l 0,9.62 c -3.58,2.08 -6,5.94 -6,10.38 0,6.63 5.37,12 12,12 6.63,0 12,-5.37 12,-12 0,-4.44 -2.42,-8.31 -6,-10.38 z m 10,8.38 0,4 6,0 0,-4 -6,0 z m -5.51,15.31 3.59,3.59 2.83,-2.83 -3.59,-3.59 -2.83,2.83 z"
         style="stroke:none"
         id="path74385"
         inkscape:connector-curvature="0" />
    </symbol>
  </defs>
  <sodipodi:namedview
     id="base"
     pagecolor="#ffffff"
     bordercolor="#666666"
     borderopacity="1.0"
     inkscape:pageopacity="0.0"
     inkscape:pageshadow="2"
     inkscape:zoom="0.49497476"
     inkscape:cx="436.27309"
     inkscape:cy="239.19273"
     inkscape:document-units="mm"
     inkscape:current-layer="layer1"
     showgrid="false"
     inkscape:snap-grids="false"
     inkscape:snap-to-guides="false"
     inkscape:snap-bbox="true"
     inkscape:bbox-paths="true"
     inkscape:object-paths="true"
     inkscape:snap-bbox-edge-midpoints="false"
     inkscape:snap-global="true"
     inkscape:window-width="1920"
     inkscape:window-height="1056"
     inkscape:window-x="0"
     inkscape:window-y="24"
     inkscape:window-maximized="1"
     inkscape:snap-bbox-midpoints="true"
     fit-margin-top="0"
     fit-margin-left="0"
     fit-margin-right="0"
     fit-margin-bottom="0" />
  <metadata
     id="metadata7">
    <rdf:RDF>
      <cc:Work
         rdf:about="">
        <dc:format>image/svg+xml</dc:format>
        <dc:type
           rdf:resource="http://purl.org/dc/dcmitype/StillImage" />
        <dc:title></dc:title>
      </cc:Work>
    </rdf:RDF>
  </metadata>
  <g
     inkscape:label="Layer 1"
     inkscape:groupmode="layer"
     id="layer1"
     transform="translate(-135.68048,-289.94098)">
    <path
       style="opacity:1;fill:#ececec;fill-opacity:1;fill-rule:nonzero;stroke:none;stroke-width:0.35433072;stroke-linecap:butt;stroke-miterlimit:4;stroke-dasharray:none;stroke-dashoffset:0;stroke-opacity:1"
       d="m 221.39477,289.94098 347.78987,0 c 47.48571,0 85.71429,38.22857 85.71429,85.71429 l 0,347.78987 c 0,47.48571 -38.22858,85.71428 -85.71429,85.71428 l -347.78987,0 c -47.48572,0 -85.71429,-38.22857 -85.71429,-85.71428 l 0,-347.78987 c 0,-47.48572 38.22857,-85.71429 85.71429,-85.71429 z"
       id="rect84005"
       inkscape:connector-curvature="0" />
    <path
       id="path84013"
       d="m 309.529,440.7346 -29.2682,-29.3499 -23.1365,23.1366 29.3499,29.3499 23.0548,-23.1366 z"
       style="fill:#0000ff;stroke:none;stroke-width:0.12231708;image-rendering:auto"
       inkscape:connector-curvature="0" />
    <path
       id="path84015"
       d="m 264.4822,533.1992 -49.0529,0 0,32.7019 49.0529,0 0,-32.7019 z"
       style="fill:#008000;stroke:none;stroke-width:0.12231708;image-rendering:auto"
       inkscape:connector-curvature="0" />
    <path
       id="path84017"
       d="m 411.6407,370.5073 -32.7019,0 0,48.2353 32.7019,0 0,-48.2353 z"
       style="fill:#ff0000;stroke:none;stroke-width:0.12231708;image-rendering:auto"
       inkscape:connector-curvature="0" />
    <path
       id="path84019"
       d="m 533.4552,434.5213 -23.1365,-23.1366 -29.35,29.3499 23.1366,23.1366 29.3499,-29.3499 z"
       style="fill:#ffff00;stroke:none;stroke-width:0.12231708;image-rendering:auto"
       inkscape:connector-curvature="0" />
    <path
       id="path84021"
       d="m 481.0505,658.3657 29.3499,29.35 23.1366,-23.1366 -29.35,-29.35 -23.1365,23.1366 z"
       style="fill:#00ffff;stroke:none;stroke-width:0.12231708;image-rendering:auto"
       inkscape:connector-curvature="0" />
    <path
       id="path84023"
       d="m 526.0973,533.1992 0,32.7019 49.0529,0 0,-32.7019 -49.0529,0 z"
       style="fill:#00ff00;stroke:none;stroke-width:0.12231708;image-rendering:auto"
       inkscape:connector-curvature="0" />
    <path
       id="path84025"
       d="m 395.2897,451.4445 c -54.2033,0 -98.1056,43.9023 -98.1056,98.1057 0,54.2034 43.9023,98.1057 98.1056,98.1057 54.2034,0 98.1057,-43.9023 98.1057,-98.1057 0,-54.2034 -43.9023,-98.1057 -98.1057,-98.1057 z"
       style="fill:#000000;stroke:none;stroke-width:0.12231708;image-rendering:auto"
       inkscape:connector-curvature="0" />
    <path
       id="path84027"
       d="m 378.9388,728.593 32.7019,0 0,-48.2353 -32.7019,0 0,48.2353 z"
       style="fill:#0000ff;stroke:none;stroke-width:0.12231708;image-rendering:auto"
       inkscape:connector-curvature="0" />
    <path
       id="path84029"
       d="m 257.1243,664.5791 23.1365,23.1366 29.35,-29.35 -23.1366,-23.1366 -29.3499,29.35 z"
       style="fill:#ff00ff;stroke:none;stroke-width:0.12231708;image-rendering:auto"
       inkscape:connector-curvature="0" />
  </g>
</svg>
