<?xml version="1.0" encoding="UTF-8" standalone="no"?>
<!-- Created with Inkscape (http://www.inkscape.org/) -->

<svg
   xmlns:dc="http://purl.org/dc/elements/1.1/"
   xmlns:cc="http://creativecommons.org/ns#"
   xmlns:rdf="http://www.w3.org/1999/02/22-rdf-syntax-ns#"
   xmlns:svg="http://www.w3.org/2000/svg"
   xmlns="http://www.w3.org/2000/svg"
   xmlns:sodipodi="http://sodipodi.sourceforge.net/DTD/sodipodi-0.dtd"
   xmlns:inkscape="http://www.inkscape.org/namespaces/inkscape"
   width="71.375999mm"
   height="71.375999mm"
   viewBox="0 0 252.90708 252.90708"
   id="svg2"
   version="1.1"
   inkscape:version="0.91 r13725"
   sodipodi:docname="adele_icons-08.svg">
  <defs
     id="defs4">
    <clipPath
       clipPathUnits="userSpaceOnUse"
       id="clipPath18">
      <path
         d="m 0,326.957 809.565,0 L 809.565,0 0,0 Z"
         id="path16"
         inkscape:connector-curvature="0" />
    </clipPath>
  </defs>
  <sodipodi:namedview
     id="base"
     pagecolor="#ffffff"
     bordercolor="#666666"
     borderopacity="1.0"
     inkscape:pageopacity="0.0"
     inkscape:pageshadow="2"
     inkscape:zoom="1.979899"
     inkscape:cx="-23.279539"
     inkscape:cy="134.80326"
     inkscape:document-units="mm"
     inkscape:current-layer="layer1"
     showgrid="false"
     inkscape:window-width="1920"
     inkscape:window-height="1056"
     inkscape:window-x="0"
     inkscape:window-y="24"
     inkscape:window-maximized="1"
     fit-margin-top="0"
     fit-margin-left="0"
     fit-margin-right="0"
     fit-margin-bottom="0" />
  <metadata
     id="metadata7">
    <rdf:RDF>
      <cc:Work
         rdf:about="">
        <dc:format>image/svg+xml</dc:format>
        <dc:type
           rdf:resource="http://purl.org/dc/dcmitype/StillImage" />
        <dc:title></dc:title>
      </cc:Work>
    </rdf:RDF>
  </metadata>
  <g
     inkscape:label="Layer 1"
     inkscape:groupmode="layer"
     id="layer1"
     transform="translate(-245.46709,-22.647861)">
    <g
       id="g83738"
       transform="matrix(0.93002502,0,0,0.93002502,240.10585,28.105618)">
      <polygon
         points="244.597,22.986 198.199,70.338 202.49,74.629 248.093,27.436 259.498,38.354 264.275,7.821 233.742,12.598 "
         id="polygon2-7"
         style="fill:#ff66b2;fill-opacity:1" />
      <polygon
         points="254.755,57.984 208.357,105.336 212.647,109.627 258.25,62.434 269.656,73.352 274.433,42.818 243.9,47.596 "
         id="polygon4"
         style="fill:#ff66b2;fill-opacity:1" />
      <path
         d="m 181.978,163.193 c 10.589,9.951 18.274,21.834 21.438,35.584 2.941,12.814 -4.718,22.182 -14.754,33.068 -4.389,-13.178 -8.089,-24.799 -12.139,-36.322 -4.453,-12.67 -13.293,-22.295 -23.992,-28.83 0.153,12.928 1.541,26.49 0.153,39.818 -1.593,15.299 -5.942,30.629 -21.743,39.363 -6.592,3.65 -15.104,4.428 -22.739,6.504 -0.697,-0.637 -1.396,-1.273 -2.096,-1.91 5.749,-10.299 11.85,-20.453 17.105,-30.961 3.101,-6.197 5.689,-12.818 6.954,-19.494 1.164,-6.133 0.247,-12.6 0.247,-20.355 -6.096,7.006 -10.874,13.35 -16.585,18.906 -13.011,12.658 -27.871,22.736 -47.157,26.328 -7.721,1.441 -14.672,0.52 -21.185,-3.34 -4.335,-2.574 -8.559,-5.299 -14.986,-9.291 13.317,-4.123 24.621,-8.496 36.4,-11.043 15.985,-3.459 27.054,-12.098 35.704,-23.039 -13.238,0.434 -26.586,1.43 -39.907,1.146 -13.449,-0.283 -25.987,-4.117 -37.567,-10.684 -12.843,-7.279 -14.572,-18.836 -16.097,-33.102 13.302,6.387 25.188,11.873 36.841,17.744 12.944,6.531 26.508,6.408 42.302,4.625 C 69.973,147.449 56.007,135.551 46.355,119.888 39.836,109.322 34.61,98.194 39.622,85.995 42.064,80.048 46.796,74.882 50.49,69.364 c 0.809,-0.113 1.617,-0.221 2.425,-0.327 4.027,11.241 8.644,22.348 11.927,33.765 3.965,13.783 13.884,22.936 26.458,31.779 -1.252,-6.681 -2.795,-12.359 -3.306,-18.113 -1.854,-20.876 0.749,-40.788 15.941,-57.863 7.694,-8.649 18.839,-8.735 31.536,-9.351 -5.734,10.234 -11.977,20.265 -17.012,30.778 -3.365,7.021 -5.616,14.628 -7.203,22.17 -1.097,5.209 -0.212,10.759 -0.212,18.141 2.298,-2.709 3.427,-3.902 4.391,-5.197 11.9,-15.957 26.672,-28.76 46.344,-36.741 18.019,-7.306 33.364,-4.25 48.403,9.576 -13.576,3.939 -26.167,7.985 -39.005,11.208 -10.716,2.688 -18.9,8.521 -26.448,15.41 -2.41,2.195 -4.282,4.887 -6.393,7.339 11.207,-0.819 22.249,-2.077 33.317,-2.317 13.464,-0.289 26.463,2.58 38.466,8.093 16.039,7.376 21.556,16.282 21.402,35.659 -12.006,-5.641 -23.324,-10.619 -34.27,-16.202 -11.171,-5.7 -22.975,-7.676 -35.533,-6.616 -2.392,0.203 -4.731,0.852 -6.383,1.156 8.714,6.949 18.317,13.65 26.643,21.482 z"
         id="path6"
         inkscape:connector-curvature="0"
         style="fill:#ff66b2;fill-opacity:1" />
    </g>
  </g>
</svg>
