<?xml version="1.0" encoding="UTF-8" standalone="no"?>
<svg
   xmlns:dc="http://purl.org/dc/elements/1.1/"
   xmlns:cc="http://creativecommons.org/ns#"
   xmlns:rdf="http://www.w3.org/1999/02/22-rdf-syntax-ns#"
   xmlns:svg="http://www.w3.org/2000/svg"
   xmlns="http://www.w3.org/2000/svg"
   viewBox="0 0 1133.8582 313.70079"
   height="83mm"
   width="300mm"
   xml:space="preserve"
   id="svg2"
   version="1.1"><metadata
     id="metadata8"><rdf:RDF><cc:Work
         rdf:about=""><dc:format>image/svg+xml</dc:format><dc:type
           rdf:resource="http://purl.org/dc/dcmitype/StillImage" /><dc:title></dc:title></cc:Work></rdf:RDF></metadata><defs
     id="defs6"><clipPath
       id="clipPath18"
       clipPathUnits="userSpaceOnUse"><path
         id="path16"
         d="M 0,326.957 H 809.565 V 0 H 0 Z" /></clipPath></defs><g
     transform="matrix(1.3333333,0,0,-1.3333333,0,313.70079)"
     id="g10"><g
       id="g943"><g
         id="g52"
         transform="matrix(1.0545998,0,0,1.0545998,632.91629,218.53596)"><path
           d="M 0,0 V -173.623 H 59.49 V -202.32 H -30.531 V 0 Z"
           style="fill:#ab208e;fill-opacity:1;fill-rule:nonzero;stroke:none"
           id="path54" /></g><g
         id="g56"
         transform="matrix(1.0545998,0,0,1.0545998,129.07911,100.08289)"><path
           d="m 0,0 c 3.519,-3.631 6.072,-7.967 7.123,-12.984 0.978,-4.676 -1.567,-8.094 -4.902,-12.067 -1.458,4.809 -2.688,9.049 -4.033,13.254 -1.48,4.623 -4.417,8.135 -7.972,10.52 0.051,-4.717 0.512,-9.666 0.051,-14.53 -0.53,-5.582 -1.975,-11.175 -7.225,-14.363 -2.19,-1.332 -5.019,-1.615 -7.556,-2.373 -0.231,0.232 -0.464,0.465 -0.696,0.697 1.91,3.758 3.938,7.463 5.684,11.297 1.03,2.262 1.89,4.678 2.31,7.113 0.387,2.239 0.082,4.598 0.082,7.428 -2.025,-2.556 -3.613,-4.871 -5.511,-6.898 -4.323,-4.619 -9.26,-8.297 -15.668,-9.608 -2.566,-0.525 -4.875,-0.189 -7.04,1.219 -1.44,0.94 -2.843,1.934 -4.979,3.391 4.425,1.504 8.181,3.099 12.095,4.029 5.311,1.262 8.989,4.414 11.863,8.406 -4.398,-0.158 -8.834,-0.521 -13.26,-0.418 -4.469,0.104 -8.635,1.502 -12.482,3.899 -4.268,2.656 -4.842,6.873 -5.349,12.078 4.42,-2.33 8.369,-4.332 12.241,-6.475 4.301,-2.383 8.808,-2.338 14.056,-1.687 -6.048,3.816 -10.688,8.158 -13.895,13.873 -2.166,3.855 -3.903,7.916 -2.238,12.367 0.812,2.17 2.384,4.055 3.612,6.068 0.268,0.041 0.537,0.08 0.805,0.119 1.338,-4.101 2.872,-8.154 3.963,-12.32 1.317,-5.029 4.613,-8.369 8.791,-11.596 -0.416,2.438 -0.929,4.51 -1.099,6.61 -0.616,7.617 0.25,14.883 5.297,21.113 2.557,3.156 6.26,3.188 10.479,3.412 -1.905,-3.734 -3.98,-7.394 -5.652,-11.23 -1.119,-2.563 -1.867,-5.338 -2.394,-8.09 -0.364,-1.9 -0.07,-3.926 -0.07,-6.619 0.763,0.988 1.138,1.424 1.459,1.896 3.954,5.823 8.862,10.494 15.398,13.406 5.987,2.667 11.086,1.551 16.083,-3.494 -4.511,-1.437 -8.694,-2.914 -12.96,-4.089 -3.56,-0.981 -6.28,-3.11 -8.788,-5.624 -0.801,-0.8 -1.423,-1.783 -2.124,-2.677 3.724,0.299 7.393,0.758 11.07,0.845 C 1.043,16.004 5.362,14.957 9.351,12.945 14.68,10.254 16.513,7.004 16.462,-0.066 12.473,1.992 8.712,3.809 5.075,5.846 1.363,7.926 -2.559,8.646 -6.731,8.26 -7.526,8.186 -8.304,7.949 -8.853,7.838 -5.957,5.303 -2.767,2.857 0,0 M -18.73,125.031 -118.843,-90 h 32.89 l 22.539,49.139 H 23.199 L 44.428,-90 h 33.414 z"
           style="fill:#ab208e;fill-opacity:1;fill-rule:nonzero;stroke:none"
           id="path58" /></g><g
         id="g60"
         transform="matrix(1.0545998,0,0,1.0545998,343.9611,55.332524)"><path
           d="m 0,0 c -7.338,-6.639 -15.55,-11.488 -24.635,-14.545 -9.085,-2.883 -20.485,-4.324 -34.2,-4.324 h -13.759 v 144.926 h 13.759 c 26.032,0 45.731,-6.159 59.097,-18.475 C 15.113,93.777 22.538,75.783 22.538,53.594 22.538,31.58 15.025,13.715 0,0 m 22.015,128.678 c -10.309,9.433 -21.796,16.117 -34.463,20.049 -11.793,4.017 -27.867,6.027 -48.222,6.027 h -42.456 V 136.08 l -9.941,-2.012 c 0.335,1.645 0.127,3.412 -0.715,5.016 -1.941,3.691 -6.504,5.109 -10.195,3.168 -3.691,-1.94 -5.111,-6.504 -3.17,-10.193 1.359,-2.586 4.005,-4.049 6.734,-4.034 l 3.95,-0.609 13.337,1.447 v -6.082 l -0.293,-8.843 -16.124,-3.581 -10.36,7.299 c 0.084,1.334 -0.178,2.709 -0.846,3.979 -1.939,3.691 -6.504,5.109 -10.193,3.168 -3.692,-1.94 -5.111,-6.504 -3.17,-10.194 1.94,-3.691 6.505,-5.111 10.196,-3.17 0.228,0.122 0.446,0.25 0.657,0.391 l 10.266,-7.807 19.867,2.844 V 94.639 l -0.109,-1.694 -28.256,-3.556 -17.4,12.107 c 0.458,1.758 0.296,3.682 -0.614,5.416 -1.941,3.69 -6.506,5.109 -10.195,3.17 -3.691,-1.941 -5.111,-6.506 -3.17,-10.197 1.941,-3.69 6.506,-5.108 10.196,-3.168 0.23,0.121 0.448,0.252 0.661,0.392 l 19.998,-15.326 28.889,3.346 V -47.566 h 41.932 c 20.529,0 36.384,1.878 47.566,5.636 11.968,3.756 23.412,10.44 34.332,20.047 21.751,19.219 32.628,44.377 32.628,75.477 0,31.011 -10.439,56.041 -31.317,75.084"
           style="fill:#ab208e;fill-opacity:1;fill-rule:nonzero;stroke:none"
           id="path62" /></g><g
         id="g64"
         transform="matrix(1.0545998,0,0,1.0545998,848.15147,188.27179)"><path
           d="m 0,0 h -81.111 l 0.514,-55.826 55.359,0.652 -55.873,-89.752 H 0 v -28.697 H -111.643 V 28.697 H 0 Z"
           style="fill:#ab208e;fill-opacity:1;fill-rule:nonzero;stroke:none"
           id="path66" /></g><g
         id="g68"
         transform="matrix(1.0545998,0,0,1.0545998,558.13652,188.27179)"><path
           d="m 0,0 h -81.111 l 0.514,-55.826 55.359,0.652 -55.873,-89.752 H 0 v -28.697 H -111.643 V 28.697 H 0 Z"
           style="fill:#ab208e;fill-opacity:1;fill-rule:nonzero;stroke:none"
           id="path70" /></g></g></g></svg>