<?xml version="1.0" encoding="UTF-8" standalone="no"?>
<!-- Created with Inkscape (http://www.inkscape.org/) -->

<svg
   xmlns:dc="http://purl.org/dc/elements/1.1/"
   xmlns:cc="http://creativecommons.org/ns#"
   xmlns:rdf="http://www.w3.org/1999/02/22-rdf-syntax-ns#"
   xmlns:svg="http://www.w3.org/2000/svg"
   xmlns="http://www.w3.org/2000/svg"
   xmlns:xlink="http://www.w3.org/1999/xlink"
   xmlns:sodipodi="http://sodipodi.sourceforge.net/DTD/sodipodi-0.dtd"
   xmlns:inkscape="http://www.inkscape.org/namespaces/inkscape"
   width="146.535mm"
   height="146.535mm"
   viewBox="0 0 519.21852 519.21851"
   id="svg2"
   version="1.1"
   inkscape:version="0.91 r13725"
   sodipodi:docname="Alt-OpenClaw.svg">
  <defs
     id="defs4">
    <inkscape:path-effect
       effect="powerstroke"
       id="path-effect84278"
       is_visible="true"
       offset_points="0,0.5"
       sort_points="true"
       interpolator_type="Linear"
       interpolator_beta="0.2"
       start_linecap_type="zerowidth"
       linejoin_type="round"
       miter_limit="4"
       end_linecap_type="zerowidth"
       cusp_linecap_type="round" />
    <inkscape:path-effect
       effect="spiro"
       id="path-effect84276"
       is_visible="true" />
    <linearGradient
       inkscape:collect="always"
       id="linearGradient84263">
      <stop
         style="stop-color:#169dc9;stop-opacity:1;"
         offset="0"
         id="stop84265" />
      <stop
         style="stop-color:#0f708f;stop-opacity:1"
         offset="1"
         id="stop84267" />
    </linearGradient>
    <marker
       inkscape:stockid="TriangleOutL"
       orient="auto"
       refY="0"
       refX="0"
       id="TriangleOutL"
       style="overflow:visible"
       inkscape:isstock="true">
      <path
         id="path84385"
         d="m 5.77,0 -8.65,5 0,-10 8.65,5 z"
         style="fill:#000000;fill-opacity:1;fill-rule:evenodd;stroke:#000000;stroke-width:1pt;stroke-opacity:1"
         transform="scale(0.8,0.8)"
         inkscape:connector-curvature="0" />
    </marker>
    <marker
       inkscape:stockid="Arrow1Lend"
       orient="auto"
       refY="0"
       refX="0"
       id="marker84503"
       style="overflow:visible"
       inkscape:isstock="true">
      <path
         id="path84505"
         d="M 0,0 5,-5 -12.5,0 5,5 0,0 Z"
         style="fill:#000000;fill-opacity:1;fill-rule:evenodd;stroke:#000000;stroke-width:1pt;stroke-opacity:1"
         transform="matrix(-0.8,0,0,-0.8,-10,0)"
         inkscape:connector-curvature="0" />
    </marker>
    <marker
       inkscape:stockid="Arrow2Lend"
       orient="auto"
       refY="0"
       refX="0"
       id="Arrow2Lend"
       style="overflow:visible"
       inkscape:isstock="true">
      <path
         id="path84264"
         style="fill:#000000;fill-opacity:1;fill-rule:evenodd;stroke:#000000;stroke-width:0.625;stroke-linejoin:round;stroke-opacity:1"
         d="M 8.7185878,4.0337352 -2.2072895,0.01601326 8.7185884,-4.0017078 c -1.7454984,2.3720609 -1.7354408,5.6174519 -6e-7,8.035443 z"
         transform="matrix(-1.1,0,0,-1.1,-1.1,0)"
         inkscape:connector-curvature="0" />
    </marker>
    <marker
       inkscape:stockid="Arrow1Lend"
       orient="auto"
       refY="0"
       refX="0"
       id="Arrow1Lend"
       style="overflow:visible"
       inkscape:isstock="true">
      <path
         id="path84246"
         d="M 0,0 5,-5 -12.5,0 5,5 0,0 Z"
         style="fill:#000000;fill-opacity:1;fill-rule:evenodd;stroke:#000000;stroke-width:1pt;stroke-opacity:1"
         transform="matrix(-0.8,0,0,-0.8,-10,0)"
         inkscape:connector-curvature="0" />
    </marker>
    <symbol
       id="symbol8102">
      <title
         id="title8104">Arrow Drop Up</title>
      <path
         d="M 14,28 24,18 34,28 Z"
         style="stroke:none"
         id="path8106"
         inkscape:connector-curvature="0" />
    </symbol>
    <symbol
       id="symbol8186">
      <title
         id="title8188">Refresh</title>
      <path
         d="M 35.3,12.7 C 32.41,9.8 28.42,8 24,8 15.16,8 8.02,15.16 8.02,24 c 0,8.84 7.14,16 15.98,16 7.45,0 13.69,-5.1 15.46,-12 l -4.16,0 c -1.65,4.66 -6.07,8 -11.3,8 -6.63,0 -12,-5.37 -12,-12 0,-6.63 5.37,-12 12,-12 3.31,0 6.28,1.38 8.45,3.55 L 26,22 40,22 40,8 35.3,12.7 Z"
         style="stroke:none"
         id="path8190"
         inkscape:connector-curvature="0" />
    </symbol>
    <symbol
       id="symbol8084">
      <title
         id="title8086">Arrow Back</title>
      <path
         d="M 40,22 15.66,22 26.83,10.83 24,8 8,24 24,40 26.83,37.17 15.66,26 40,26 40,22 Z"
         style="stroke:none"
         id="path8088"
         inkscape:connector-curvature="0" />
    </symbol>
    <symbol
       id="symbol71972">
      <title
         id="title71974">Queue Music</title>
      <path
         d="m 30,12 -24,0 0,4 24,0 0,-4 z m 0,8 -24,0 0,4 24,0 0,-4 z M 6,32 22,32 22,28 6,28 6,32 Z M 34,12 34,28.37 C 33.37,28.14 32.71,28 32,28 c -3.31,0 -6,2.69 -6,6 0,3.31 2.69,6 6,6 3.31,0 6,-2.69 6,-6 l 0,-18 6,0 0,-4 -10,0 z"
         style="stroke:none"
         id="path71976"
         inkscape:connector-curvature="0" />
    </symbol>
    <symbol
       id="symbol74393">
      <title
         id="title74395">WB Sunny</title>
      <path
         d="M 13.51,9.69 9.93,6.1 7.1,8.93 10.69,12.52 13.51,9.69 Z M 8,21 2,21 2,25 8,25 8,21 Z M 26,1.1 22,1.1 22,7 26,7 26,1.1 Z M 40.9,8.93 38.07,6.1 34.48,9.69 37.31,12.52 40.9,8.93 Z m -6.41,27.38 3.59,3.59 2.83,-2.83 -3.59,-3.59 -2.83,2.83 z M 40,21 l 0,4 6,0 0,-4 -6,0 z M 24,11 c -6.63,0 -12,5.37 -12,12 0,6.63 5.37,12 12,12 6.63,0 12,-5.37 12,-12 0,-6.63 -5.37,-12 -12,-12 z m -2,33.9 4,0 0,-5.9 -4,0 0,5.9 z M 7.1,37.07 9.93,39.9 13.52,36.31 10.69,33.48 7.1,37.07 Z"
         style="stroke:none"
         id="path74397"
         inkscape:connector-curvature="0" />
    </symbol>
    <symbol
       id="symbol74381">
      <title
         id="title74383">WB Incandescent</title>
      <path
         d="m 7.1,37.07 2.83,2.83 3.59,-3.59 -2.83,-2.83 -3.59,3.59 z m 14.9,7.83 4,0 0,-5.9 -4,0 0,5.9 z M 8,21 2,21 2,25 8,25 8,21 Z M 30,12.62 30,3 18,3 l 0,9.62 c -3.58,2.08 -6,5.94 -6,10.38 0,6.63 5.37,12 12,12 6.63,0 12,-5.37 12,-12 0,-4.44 -2.42,-8.31 -6,-10.38 z m 10,8.38 0,4 6,0 0,-4 -6,0 z m -5.51,15.31 3.59,3.59 2.83,-2.83 -3.59,-3.59 -2.83,2.83 z"
         style="stroke:none"
         id="path74385"
         inkscape:connector-curvature="0" />
    </symbol>
    <linearGradient
       inkscape:collect="always"
       xlink:href="#linearGradient84263"
       id="linearGradient84269"
       x1="-289.64084"
       y1="5396.5698"
       x2="229.57765"
       y2="5396.5698"
       gradientUnits="userSpaceOnUse"
       gradientTransform="translate(413.40691,-4910.773)" />
  </defs>
  <sodipodi:namedview
     id="base"
     pagecolor="#ffffff"
     bordercolor="#666666"
     borderopacity="1.0"
     inkscape:pageopacity="0.0"
     inkscape:pageshadow="2"
     inkscape:zoom="0.0798245"
     inkscape:cx="-449.12743"
     inkscape:cy="-3557.4266"
     inkscape:document-units="mm"
     inkscape:current-layer="layer1"
     showgrid="false"
     inkscape:snap-grids="false"
     inkscape:snap-to-guides="false"
     inkscape:snap-bbox="true"
     inkscape:bbox-paths="true"
     inkscape:object-paths="false"
     inkscape:snap-bbox-edge-midpoints="true"
     inkscape:snap-global="false"
     inkscape:window-width="1920"
     inkscape:window-height="1056"
     inkscape:window-x="1920"
     inkscape:window-y="24"
     inkscape:window-maximized="1"
     inkscape:snap-bbox-midpoints="true"
     inkscape:object-nodes="true"
     fit-margin-top="0"
     fit-margin-left="0"
     fit-margin-right="0"
     fit-margin-bottom="0" />
  <metadata
     id="metadata7">
    <rdf:RDF>
      <cc:Work
         rdf:about="">
        <dc:format>image/svg+xml</dc:format>
        <dc:type
           rdf:resource="http://purl.org/dc/dcmitype/StillImage" />
        <dc:title></dc:title>
      </cc:Work>
    </rdf:RDF>
  </metadata>
  <g
     inkscape:label="Layer 1"
     inkscape:groupmode="layer"
     id="layer1"
     transform="translate(-123.76606,-226.18737)">
    <path
       id="path84202"
       d="m 209.48036,226.18737 347.7899,0 c 47.4857,0 85.7143,38.2286 85.7143,85.7143 l 0,347.7899 c 0,47.4857 -38.2286,85.7143 -85.7143,85.7143 l -347.7899,0 c -47.4857,0 -85.7143,-38.2286 -85.7143,-85.7143 l 0,-347.7899 c 0,-47.4857 38.2286,-85.7143 85.7143,-85.7143 z"
       style="opacity:1;fill:url(#linearGradient84269);fill-opacity:1;fill-rule:nonzero;stroke:none;stroke-width:0.35433072;stroke-linecap:butt;stroke-miterlimit:4;stroke-dasharray:none;stroke-dashoffset:0;stroke-opacity:1"
       inkscape:connector-curvature="0" />
    <g
       id="g84365"
       transform="translate(409.91002,-4942.0634)">
      <path
         inkscape:transform-center-y="-93.890621"
         inkscape:transform-center-x="69.552831"
         style="opacity:1;fill:#ffffff;fill-opacity:1;fill-rule:nonzero;stroke:#000000;stroke-width:3.5433073;stroke-linecap:butt;stroke-miterlimit:4;stroke-dasharray:none;stroke-dashoffset:0;stroke-opacity:1"
         d="m -217.06031,5273.602 c -8.25175,4.8433 -13.93082,13.7506 -13.97249,24.0562 l -0.64202,158.7344 c -0.0445,10.9952 5.90746,20.5686 14.94598,25.4037 1.46107,1.3641 3.08378,2.6 4.87328,3.6676 l 112.964584,67.3959 c 13.486132,8.0461 30.821945,3.6674 38.867996,-9.8187 l 20.90172,-35.0347 c 8.04605,-13.4861 3.665762,-30.8209 -9.820308,-38.8669 l -84.692962,-50.5294 0.0804,-119.555 c 0.22503,-15.7023 -12.23495,-28.5255 -27.93723,-28.7506 0,0 -27.29305,-2.2306 -40.79178,-0.5852 -5.05549,0.6163 -10.4548,1.3458 -14.77718,3.8827 z"
         id="path84344"
         inkscape:connector-curvature="0"
         sodipodi:nodetypes="sssccssssccsas" />
      <path
         sodipodi:nodetypes="sssccssssccsas"
         inkscape:connector-curvature="0"
         id="path84352"
         d="m 163.99089,5273.602 c 8.25175,4.8433 13.93082,13.7506 13.97249,24.0562 l 0.64202,158.7344 c 0.0445,10.9952 -5.90746,20.5686 -14.94598,25.4037 -1.46107,1.3641 -3.08378,2.6 -4.87328,3.6676 l -112.96459,67.3959 c -13.486123,8.0461 -30.821936,3.6674 -38.8679845,-9.8187 l -20.9017195,-35.0347 c -8.04605,-13.4861 -3.66576,-30.8209 9.8203125,-38.8669 L 80.5651,5418.6101 80.4847,5299.0551 c -0.22503,-15.7023 12.234951,-28.5255 27.93724,-28.7506 0,0 27.29305,-2.2306 40.79178,-0.5852 5.05549,0.6163 10.4548,1.3458 14.77718,3.8827 z"
         style="opacity:1;fill:#ffffff;fill-opacity:1;fill-rule:nonzero;stroke:#000000;stroke-width:3.5433073;stroke-linecap:butt;stroke-miterlimit:4;stroke-dasharray:none;stroke-dashoffset:0;stroke-opacity:1"
         inkscape:transform-center-x="-69.552832"
         inkscape:transform-center-y="-93.890621" />
      <rect
         style="opacity:1;fill:#ffffff;fill-opacity:1;fill-rule:nonzero;stroke:#000000;stroke-width:3.54330707;stroke-linecap:butt;stroke-miterlimit:4;stroke-dasharray:none;stroke-dashoffset:0;stroke-opacity:1"
         id="rect84354"
         width="108.45019"
         height="209.39928"
         x="-5586.606"
         y="-134.73123"
         rx="28.346457"
         ry="28.346457"
         transform="matrix(0,-1,1,0,0,0)" />
    </g>
  </g>
</svg>
