<?xml version="1.0" encoding="UTF-8" standalone="no"?>
<!-- Created with Inkscape (http://www.inkscape.org/) -->

<svg
   xmlns:dc="http://purl.org/dc/elements/1.1/"
   xmlns:cc="http://creativecommons.org/ns#"
   xmlns:rdf="http://www.w3.org/1999/02/22-rdf-syntax-ns#"
   xmlns:svg="http://www.w3.org/2000/svg"
   xmlns="http://www.w3.org/2000/svg"
   xmlns:sodipodi="http://sodipodi.sourceforge.net/DTD/sodipodi-0.dtd"
   xmlns:inkscape="http://www.inkscape.org/namespaces/inkscape"
   width="146.53499mm"
   height="146.53499mm"
   viewBox="0 0 519.21846 519.21846"
   id="svg2"
   version="1.1"
   inkscape:version="0.91 r13725"
   sodipodi:docname="Alt-OpenClaw.svg">
  <defs
     id="defs4">
    <marker
       inkscape:stockid="TriangleOutL"
       orient="auto"
       refY="0"
       refX="0"
       id="TriangleOutL"
       style="overflow:visible"
       inkscape:isstock="true">
      <path
         id="path84385"
         d="m 5.77,0 -8.65,5 0,-10 8.65,5 z"
         style="fill:#000000;fill-opacity:1;fill-rule:evenodd;stroke:#000000;stroke-width:1pt;stroke-opacity:1"
         transform="scale(0.8,0.8)"
         inkscape:connector-curvature="0" />
    </marker>
    <marker
       inkscape:stockid="Arrow1Lend"
       orient="auto"
       refY="0"
       refX="0"
       id="marker84503"
       style="overflow:visible"
       inkscape:isstock="true">
      <path
         id="path84505"
         d="M 0,0 5,-5 -12.5,0 5,5 0,0 Z"
         style="fill:#000000;fill-opacity:1;fill-rule:evenodd;stroke:#000000;stroke-width:1pt;stroke-opacity:1"
         transform="matrix(-0.8,0,0,-0.8,-10,0)"
         inkscape:connector-curvature="0" />
    </marker>
    <marker
       inkscape:stockid="Arrow2Lend"
       orient="auto"
       refY="0"
       refX="0"
       id="Arrow2Lend"
       style="overflow:visible"
       inkscape:isstock="true">
      <path
         id="path84264"
         style="fill:#000000;fill-opacity:1;fill-rule:evenodd;stroke:#000000;stroke-width:0.625;stroke-linejoin:round;stroke-opacity:1"
         d="M 8.7185878,4.0337352 -2.2072895,0.01601326 8.7185884,-4.0017078 c -1.7454984,2.3720609 -1.7354408,5.6174519 -6e-7,8.035443 z"
         transform="matrix(-1.1,0,0,-1.1,-1.1,0)"
         inkscape:connector-curvature="0" />
    </marker>
    <marker
       inkscape:stockid="Arrow1Lend"
       orient="auto"
       refY="0"
       refX="0"
       id="Arrow1Lend"
       style="overflow:visible"
       inkscape:isstock="true">
      <path
         id="path84246"
         d="M 0,0 5,-5 -12.5,0 5,5 0,0 Z"
         style="fill:#000000;fill-opacity:1;fill-rule:evenodd;stroke:#000000;stroke-width:1pt;stroke-opacity:1"
         transform="matrix(-0.8,0,0,-0.8,-10,0)"
         inkscape:connector-curvature="0" />
    </marker>
    <symbol
       id="symbol8102">
      <title
         id="title8104">Arrow Drop Up</title>
      <path
         d="M 14,28 24,18 34,28 Z"
         style="stroke:none"
         id="path8106"
         inkscape:connector-curvature="0" />
    </symbol>
    <symbol
       id="symbol8186">
      <title
         id="title8188">Refresh</title>
      <path
         d="M 35.3,12.7 C 32.41,9.8 28.42,8 24,8 15.16,8 8.02,15.16 8.02,24 c 0,8.84 7.14,16 15.98,16 7.45,0 13.69,-5.1 15.46,-12 l -4.16,0 c -1.65,4.66 -6.07,8 -11.3,8 -6.63,0 -12,-5.37 -12,-12 0,-6.63 5.37,-12 12,-12 3.31,0 6.28,1.38 8.45,3.55 L 26,22 40,22 40,8 35.3,12.7 Z"
         style="stroke:none"
         id="path8190"
         inkscape:connector-curvature="0" />
    </symbol>
    <symbol
       id="symbol8084">
      <title
         id="title8086">Arrow Back</title>
      <path
         d="M 40,22 15.66,22 26.83,10.83 24,8 8,24 24,40 26.83,37.17 15.66,26 40,26 40,22 Z"
         style="stroke:none"
         id="path8088"
         inkscape:connector-curvature="0" />
    </symbol>
    <symbol
       id="symbol71972">
      <title
         id="title71974">Queue Music</title>
      <path
         d="m 30,12 -24,0 0,4 24,0 0,-4 z m 0,8 -24,0 0,4 24,0 0,-4 z M 6,32 22,32 22,28 6,28 6,32 Z M 34,12 34,28.37 C 33.37,28.14 32.71,28 32,28 c -3.31,0 -6,2.69 -6,6 0,3.31 2.69,6 6,6 3.31,0 6,-2.69 6,-6 l 0,-18 6,0 0,-4 -10,0 z"
         style="stroke:none"
         id="path71976"
         inkscape:connector-curvature="0" />
    </symbol>
    <symbol
       id="symbol74393">
      <title
         id="title74395">WB Sunny</title>
      <path
         d="M 13.51,9.69 9.93,6.1 7.1,8.93 10.69,12.52 13.51,9.69 Z M 8,21 2,21 2,25 8,25 8,21 Z M 26,1.1 22,1.1 22,7 26,7 26,1.1 Z M 40.9,8.93 38.07,6.1 34.48,9.69 37.31,12.52 40.9,8.93 Z m -6.41,27.38 3.59,3.59 2.83,-2.83 -3.59,-3.59 -2.83,2.83 z M 40,21 l 0,4 6,0 0,-4 -6,0 z M 24,11 c -6.63,0 -12,5.37 -12,12 0,6.63 5.37,12 12,12 6.63,0 12,-5.37 12,-12 0,-6.63 -5.37,-12 -12,-12 z m -2,33.9 4,0 0,-5.9 -4,0 0,5.9 z M 7.1,37.07 9.93,39.9 13.52,36.31 10.69,33.48 7.1,37.07 Z"
         style="stroke:none"
         id="path74397"
         inkscape:connector-curvature="0" />
    </symbol>
    <symbol
       id="symbol74381">
      <title
         id="title74383">WB Incandescent</title>
      <path
         d="m 7.1,37.07 2.83,2.83 3.59,-3.59 -2.83,-2.83 -3.59,3.59 z m 14.9,7.83 4,0 0,-5.9 -4,0 0,5.9 z M 8,21 2,21 2,25 8,25 8,21 Z M 30,12.62 30,3 18,3 l 0,9.62 c -3.58,2.08 -6,5.94 -6,10.38 0,6.63 5.37,12 12,12 6.63,0 12,-5.37 12,-12 0,-4.44 -2.42,-8.31 -6,-10.38 z m 10,8.38 0,4 6,0 0,-4 -6,0 z m -5.51,15.31 3.59,3.59 2.83,-2.83 -3.59,-3.59 -2.83,2.83 z"
         style="stroke:none"
         id="path74385"
         inkscape:connector-curvature="0" />
    </symbol>
  </defs>
  <sodipodi:namedview
     id="base"
     pagecolor="#ffffff"
     bordercolor="#666666"
     borderopacity="1.0"
     inkscape:pageopacity="0.0"
     inkscape:pageshadow="2"
     inkscape:zoom="0.70000002"
     inkscape:cx="393.81485"
     inkscape:cy="-84.064673"
     inkscape:document-units="mm"
     inkscape:current-layer="layer1"
     showgrid="false"
     inkscape:snap-grids="false"
     inkscape:snap-to-guides="false"
     inkscape:snap-bbox="true"
     inkscape:bbox-paths="true"
     inkscape:object-paths="true"
     inkscape:snap-bbox-edge-midpoints="false"
     inkscape:snap-global="true"
     inkscape:window-width="1920"
     inkscape:window-height="1056"
     inkscape:window-x="1920"
     inkscape:window-y="24"
     inkscape:window-maximized="1"
     inkscape:snap-bbox-midpoints="true"
     fit-margin-top="0"
     fit-margin-left="0"
     fit-margin-right="0"
     fit-margin-bottom="0" />
  <metadata
     id="metadata7">
    <rdf:RDF>
      <cc:Work
         rdf:about="">
        <dc:format>image/svg+xml</dc:format>
        <dc:type
           rdf:resource="http://purl.org/dc/dcmitype/StillImage" />
        <dc:title></dc:title>
      </cc:Work>
    </rdf:RDF>
  </metadata>
  <g
     inkscape:label="Layer 1"
     inkscape:groupmode="layer"
     id="layer1"
     transform="translate(-136.23788,-247.95107)">
    <path
       style="opacity:1;fill:#ececec;fill-opacity:1;fill-rule:nonzero;stroke:none;stroke-width:0.35433072;stroke-linecap:butt;stroke-miterlimit:4;stroke-dasharray:none;stroke-dashoffset:0;stroke-opacity:1"
       d="m 221.95217,247.95107 347.78987,0 c 47.48572,0 85.71429,38.22857 85.71429,85.71428 l 0,347.78987 c 0,47.48572 -38.22857,85.71429 -85.71429,85.71429 l -347.78987,0 c -47.48571,0 -85.71429,-38.22857 -85.71429,-85.71429 l 0,-347.78987 c 0,-47.48571 38.22858,-85.71428 85.71429,-85.71428 z"
       id="rect84031"
       inkscape:connector-curvature="0" />
    <path
       id="path84045"
       d="m 424.7621,563.6154 3.0376,-4.5578 4.4651,3.1715 1.8082,-5.1698 5.1132,1.9599 0.4655,-5.4554 5.4424,0.625 -0.9053,-5.4013 5.4245,-0.7459 -2.2198,-5.0052 5.0696,-2.0731 -3.3976,-4.2952 4.3981,-3.269 -4.3595,-3.3155 3.4464,-4.2593 -5.0487,-2.1297 2.2787,-4.9794 -5.4167,-0.8076 0.967,-5.391 -5.4475,0.5657 -0.4038,-5.4629 -5.1364,1.9033 -1.7491,-5.1904 -4.5011,3.1198 -2.9861,-4.5935 -3.5828,4.1409 -4.033,-3.7063 -2.4434,4.9049 -4.8277,-2.5875 -1.1447,5.3576 -5.3216,-1.3066 0.2238,5.4733 -5.4784,0.059 1.5689,5.2214 -8.2152,0 a 12.831874,12.831874 0 0 0 -0.216,-0.013 12.831874,12.831874 0 0 0 -12.8318,12.8319 12.831874,12.831874 0 0 0 12.8318,12.832 12.831874,12.831874 0 0 0 0.5427,-0.029 l 7.6622,0 -1.5457,4.9383 5.4758,0.1212 -0.2855,5.4707 5.3344,-1.245 1.0854,5.3705 4.8586,-2.5334 2.3844,4.9305 4.0766,-3.66 3.5365,4.1822 z"
       style="opacity:1;fill:#00aad4;fill-opacity:1;fill-rule:nonzero;stroke:none;stroke-width:0.35433075;stroke-linecap:butt;stroke-miterlimit:4;stroke-dasharray:none;stroke-dashoffset:0;stroke-opacity:1"
       inkscape:connector-curvature="0" />
    <path
       id="path405539"
       style="fill:#00aad4;fill-opacity:1;stroke:none;stroke-width:0.2857143"
       d="m 444.02392,394.11102 82.28722,22.0488 -27.64434,-47.8814 12.1311,-7.0039 39.59798,68.58572 -68.58572,39.59798 -7.00389,-12.1311 47.8814,-27.64434 -82.28722,-22.0488 3.62347,-13.52296 z m -89.84094,0 -82.28722,22.0488 27.64434,-47.8814 -12.1311,-7.0039 -39.59798,68.58572 68.58572,39.59798 7.00389,-12.1311 -47.8814,-27.64434 82.28722,-22.0488 -3.62347,-13.52296 z m 290.52014,63.08234 c 0,0 -8.61079,7.10227 -13.83789,7.45117 -3.5698,0.2383 -10.04296,-3.78711 -10.04296,-3.78711 0,0 -1.65812,6.79895 -2.82032,10.09375 -1.6652,4.7207 -2.98418,9.75118 -5.92578,13.80078 -3.4571,4.7596 -19.48642,11.59054 -24.51172,14.64844 -5.158,3.1384 -22.57969,8.89858 -28.55859,9.73828 -4.6761,0.6568 -36.17383,2.65039 -36.17383,2.65039 0,0 -15.32998,9.20642 -18.64648,11.01172 -2.9339,1.597 -6.01584,3.13654 -9.30664,3.71094 -5.5265,0.9645 -17.61979,2.23714 -23.11719,1.11914 -0.25896,-0.0493 -0.542,-0.11679 -0.8086,-0.17188 l 0,-19.11523 c 0,-7.2955 -5.61424,-13.16992 -12.58984,-13.16992 l -119.82031,0 c -6.9757,0 -12.58984,5.87442 -12.58985,13.16992 l 0,20.59961 c -2.14952,0.82849 -4.32643,1.57564 -6.01953,1.91992 -5.4975,1.1179 -17.59068,-0.15454 -23.11718,-1.11914 -3.2906,-0.5743 -6.3747,-2.11394 -9.3086,-3.71094 -3.3166,-1.8053 -18.64648,-11.01172 -18.64648,-11.01172 0,0 -31.49773,-1.99339 -36.17383,-2.65039 -5.9791,-0.8398 -23.39874,-6.59978 -28.55664,-9.73828 -5.0252,-3.0577 -21.05482,-9.89109 -24.51172,-14.65039 -2.9417,-4.05 -4.26068,-9.07637 -5.92578,-13.79687 -1.1624,-3.2949 -2.82031,-10.09571 -2.82031,-10.09571 0,0 -6.47522,4.02366 -10.04493,3.78516 -5.2271,-0.3487 -13.83593,-7.44922 -13.83593,-7.44922 0,0 7.36107,22.89905 13.95117,32.77734 7.5413,11.3037 28.76939,24.14831 39.74609,32.15821 13.5672,9.9005 71.5966,31.31709 87.7461,35.92969 8.45004,2.27447 23.53792,4.04338 37.51757,5.3125 l 0,19.00195 c 3e-4,1.7892 0.0619,3.57838 0.1836,5.36328 0.1705,2.522 0.46059,5.03359 0.87109,7.52539 0.4116,2.491 0.94245,4.95893 1.58985,7.39453 0.6462,2.4354 1.4077,4.83551 2.2832,7.19141 0.8759,2.3565 1.86454,4.66477 2.96094,6.91797 1.0965,2.2528 2.29937,4.44702 3.60547,6.57422 1.3061,2.1272 2.71419,4.18571 4.21679,6.16601 1.502,1.9803 3.09775,3.87976 4.78125,5.69336 1.6845,1.8138 3.45354,3.53907 5.30274,5.16797 1.8488,1.6283 3.77453,3.15874 5.76953,4.58594 1.9949,1.427 4.05653,2.74923 6.17773,3.96093 2.1204,1.2122 4.29814,2.31208 6.52344,3.29688 2.2274,0.9849 4.50035,1.85406 6.81055,2.60156 2.3094,0.747 4.65238,1.373 7.02148,1.875 2.369,0.502 4.76092,0.87876 7.16602,1.13086 2.4051,0.2521 4.82108,0.37911 7.23828,0.37891 1.7112,-1e-4 3.4221,-0.064 5.1289,-0.19141 2.4102,-0.1788 4.81031,-0.48251 7.19141,-0.91211 2.3827,-0.4292 4.74237,-0.98405 7.07227,-1.66015 2.3283,-0.676 4.6229,-1.47288 6.875,-2.38868 2.2531,-0.9163 4.46073,-1.95065 6.61523,-3.09765 2.1543,-1.1465 4.25321,-2.40373 6.28711,-3.76953 2.0341,-1.3657 4.00103,-2.83691 5.89453,-4.40821 1.8936,-1.5715 3.71121,-3.2426 5.44531,-5.0039 1.7334,-1.7611 3.3808,-3.61142 4.9375,-5.54493 1.558,-1.93349 3.02308,-3.9466 4.38868,-6.0332 1.3641,-2.0863 2.62695,-4.24264 3.78515,-6.46094 1.1593,-2.2191 2.2128,-4.49727 3.1543,-6.82617 0.9412,-2.3284 1.77017,-4.70404 2.48437,-7.11914 0.7142,-2.4149 1.31287,-4.86625 1.79297,-7.34375 0.4802,-2.4779 0.84083,-4.98039 1.08203,-7.49609 0.2416,-2.5152 0.36319,-5.04046 0.36328,-7.56836 l 0,-21.02735 c 11.71605,-1.82706 23.29246,-4.18414 32.30665,-6.51757 16.1496,-4.6128 74.17704,-26.03124 87.74414,-35.93164 10.9767,-8.0098 32.20489,-20.85255 39.74609,-32.15625 6.5902,-9.8784 13.95312,-32.7793 13.95312,-32.7793 z"
       inkscape:connector-curvature="0" />
  </g>
</svg>
