<?xml version="1.0" encoding="utf-8"?>
<!-- Generator: Adobe Illustrator 16.0.0, SVG Export Plug-In . SVG Version: 6.00 Build 0)  -->
<!DOCTYPE svg PUBLIC "-//W3C//DTD SVG 1.1//EN" "http://www.w3.org/Graphics/SVG/1.1/DTD/svg11.dtd">
<svg version="1.1" id="Layer_1" xmlns="http://www.w3.org/2000/svg" xmlns:xlink="http://www.w3.org/1999/xlink" x="0px" y="0px"
	 width="283.465px" height="283.465px" viewBox="0 0 283.465 283.465" enable-background="new 0 0 283.465 283.465"
	 xml:space="preserve">
<path fill="#AB218E" d="M141.731,15.28c-69.837,0-126.452,56.614-126.452,126.453c0,69.838,56.615,126.452,126.452,126.452
	c69.839,0,126.454-56.614,126.454-126.452C268.185,71.895,211.57,15.28,141.731,15.28z M124.664,213.515v-40.119l-32.798,3.799
	l-23.124-17.721c-0.246,0.163-0.499,0.313-0.763,0.454c-4.268,2.242-9.546,0.602-11.791-3.664
	c-2.243-4.267-0.601-9.545,3.665-11.789s9.544-0.602,11.789,3.664c1.052,2.006,1.239,4.229,0.711,6.263l20.117,13.998l32.193-4.049
	v-16.073l-22.367,3.201l-11.87-9.027c-0.245,0.164-0.498,0.313-0.759,0.452c-4.269,2.245-9.546,0.604-11.792-3.664
	c-2.242-4.266-0.603-9.544,3.665-11.786c4.266-2.245,9.545-0.605,11.787,3.662c0.772,1.469,1.075,3.058,0.979,4.6l11.98,8.441
	l18.377-4.081v-17.253l-14.816,1.608l-4.568-0.704c-3.155,0.019-6.215-1.674-7.787-4.664c-2.243-4.266-0.601-9.544,3.667-11.785
	c4.265-2.246,9.544-0.606,11.786,3.662c0.973,1.854,1.215,3.897,0.827,5.8l10.891-2.204V69.95l98.887,71.433L124.664,213.515z"/>
</svg>
