<?xml version="1.0" encoding="UTF-8" standalone="no"?>
<!-- Created with Inkscape (http://www.inkscape.org/) -->

<svg
   xmlns:dc="http://purl.org/dc/elements/1.1/"
   xmlns:cc="http://creativecommons.org/ns#"
   xmlns:rdf="http://www.w3.org/1999/02/22-rdf-syntax-ns#"
   xmlns:svg="http://www.w3.org/2000/svg"
   xmlns="http://www.w3.org/2000/svg"
   xmlns:sodipodi="http://sodipodi.sourceforge.net/DTD/sodipodi-0.dtd"
   xmlns:inkscape="http://www.inkscape.org/namespaces/inkscape"
   width="146.53499mm"
   height="146.53499mm"
   viewBox="0 0 519.21846 519.21846"
   id="svg2"
   version="1.1"
   inkscape:version="0.91 r13725"
   sodipodi:docname="Alt-Right.svg">
  <defs
     id="defs4">
    <marker
       inkscape:stockid="TriangleOutL"
       orient="auto"
       refY="0"
       refX="0"
       id="TriangleOutL"
       style="overflow:visible"
       inkscape:isstock="true">
      <path
         id="path84385"
         d="m 5.77,0 -8.65,5 0,-10 8.65,5 z"
         style="fill:#000000;fill-opacity:1;fill-rule:evenodd;stroke:#000000;stroke-width:1pt;stroke-opacity:1"
         transform="scale(0.8,0.8)"
         inkscape:connector-curvature="0" />
    </marker>
    <marker
       inkscape:stockid="Arrow1Lend"
       orient="auto"
       refY="0"
       refX="0"
       id="marker84503"
       style="overflow:visible"
       inkscape:isstock="true">
      <path
         id="path84505"
         d="M 0,0 5,-5 -12.5,0 5,5 0,0 Z"
         style="fill:#000000;fill-opacity:1;fill-rule:evenodd;stroke:#000000;stroke-width:1pt;stroke-opacity:1"
         transform="matrix(-0.8,0,0,-0.8,-10,0)"
         inkscape:connector-curvature="0" />
    </marker>
    <marker
       inkscape:stockid="Arrow2Lend"
       orient="auto"
       refY="0"
       refX="0"
       id="Arrow2Lend"
       style="overflow:visible"
       inkscape:isstock="true">
      <path
         id="path84264"
         style="fill:#000000;fill-opacity:1;fill-rule:evenodd;stroke:#000000;stroke-width:0.625;stroke-linejoin:round;stroke-opacity:1"
         d="M 8.7185878,4.0337352 -2.2072895,0.01601326 8.7185884,-4.0017078 c -1.7454984,2.3720609 -1.7354408,5.6174519 -6e-7,8.035443 z"
         transform="matrix(-1.1,0,0,-1.1,-1.1,0)"
         inkscape:connector-curvature="0" />
    </marker>
    <marker
       inkscape:stockid="Arrow1Lend"
       orient="auto"
       refY="0"
       refX="0"
       id="Arrow1Lend"
       style="overflow:visible"
       inkscape:isstock="true">
      <path
         id="path84246"
         d="M 0,0 5,-5 -12.5,0 5,5 0,0 Z"
         style="fill:#000000;fill-opacity:1;fill-rule:evenodd;stroke:#000000;stroke-width:1pt;stroke-opacity:1"
         transform="matrix(-0.8,0,0,-0.8,-10,0)"
         inkscape:connector-curvature="0" />
    </marker>
    <symbol
       id="symbol8102">
      <title
         id="title8104">Arrow Drop Up</title>
      <path
         d="M 14,28 24,18 34,28 Z"
         style="stroke:none"
         id="path8106"
         inkscape:connector-curvature="0" />
    </symbol>
    <symbol
       id="symbol8186">
      <title
         id="title8188">Refresh</title>
      <path
         d="M 35.3,12.7 C 32.41,9.8 28.42,8 24,8 15.16,8 8.02,15.16 8.02,24 c 0,8.84 7.14,16 15.98,16 7.45,0 13.69,-5.1 15.46,-12 l -4.16,0 c -1.65,4.66 -6.07,8 -11.3,8 -6.63,0 -12,-5.37 -12,-12 0,-6.63 5.37,-12 12,-12 3.31,0 6.28,1.38 8.45,3.55 L 26,22 40,22 40,8 35.3,12.7 Z"
         style="stroke:none"
         id="path8190"
         inkscape:connector-curvature="0" />
    </symbol>
    <symbol
       id="symbol8084">
      <title
         id="title8086">Arrow Back</title>
      <path
         d="M 40,22 15.66,22 26.83,10.83 24,8 8,24 24,40 26.83,37.17 15.66,26 40,26 40,22 Z"
         style="stroke:none"
         id="path8088"
         inkscape:connector-curvature="0" />
    </symbol>
    <symbol
       id="symbol71972">
      <title
         id="title71974">Queue Music</title>
      <path
         d="m 30,12 -24,0 0,4 24,0 0,-4 z m 0,8 -24,0 0,4 24,0 0,-4 z M 6,32 22,32 22,28 6,28 6,32 Z M 34,12 34,28.37 C 33.37,28.14 32.71,28 32,28 c -3.31,0 -6,2.69 -6,6 0,3.31 2.69,6 6,6 3.31,0 6,-2.69 6,-6 l 0,-18 6,0 0,-4 -10,0 z"
         style="stroke:none"
         id="path71976"
         inkscape:connector-curvature="0" />
    </symbol>
    <symbol
       id="symbol74393">
      <title
         id="title74395">WB Sunny</title>
      <path
         d="M 13.51,9.69 9.93,6.1 7.1,8.93 10.69,12.52 13.51,9.69 Z M 8,21 2,21 2,25 8,25 8,21 Z M 26,1.1 22,1.1 22,7 26,7 26,1.1 Z M 40.9,8.93 38.07,6.1 34.48,9.69 37.31,12.52 40.9,8.93 Z m -6.41,27.38 3.59,3.59 2.83,-2.83 -3.59,-3.59 -2.83,2.83 z M 40,21 l 0,4 6,0 0,-4 -6,0 z M 24,11 c -6.63,0 -12,5.37 -12,12 0,6.63 5.37,12 12,12 6.63,0 12,-5.37 12,-12 0,-6.63 -5.37,-12 -12,-12 z m -2,33.9 4,0 0,-5.9 -4,0 0,5.9 z M 7.1,37.07 9.93,39.9 13.52,36.31 10.69,33.48 7.1,37.07 Z"
         style="stroke:none"
         id="path74397"
         inkscape:connector-curvature="0" />
    </symbol>
    <symbol
       id="symbol74381">
      <title
         id="title74383">WB Incandescent</title>
      <path
         d="m 7.1,37.07 2.83,2.83 3.59,-3.59 -2.83,-2.83 -3.59,3.59 z m 14.9,7.83 4,0 0,-5.9 -4,0 0,5.9 z M 8,21 2,21 2,25 8,25 8,21 Z M 30,12.62 30,3 18,3 l 0,9.62 c -3.58,2.08 -6,5.94 -6,10.38 0,6.63 5.37,12 12,12 6.63,0 12,-5.37 12,-12 0,-4.44 -2.42,-8.31 -6,-10.38 z m 10,8.38 0,4 6,0 0,-4 -6,0 z m -5.51,15.31 3.59,3.59 2.83,-2.83 -3.59,-3.59 -2.83,2.83 z"
         style="stroke:none"
         id="path74385"
         inkscape:connector-curvature="0" />
    </symbol>
  </defs>
  <sodipodi:namedview
     id="base"
     pagecolor="#ffffff"
     bordercolor="#666666"
     borderopacity="1.0"
     inkscape:pageopacity="0.0"
     inkscape:pageshadow="2"
     inkscape:zoom="0.70000002"
     inkscape:cx="155.88717"
     inkscape:cy="38.890043"
     inkscape:document-units="mm"
     inkscape:current-layer="layer1"
     showgrid="false"
     inkscape:snap-grids="false"
     inkscape:snap-to-guides="false"
     inkscape:snap-bbox="true"
     inkscape:bbox-paths="true"
     inkscape:object-paths="true"
     inkscape:snap-bbox-edge-midpoints="false"
     inkscape:snap-global="true"
     inkscape:window-width="1920"
     inkscape:window-height="1056"
     inkscape:window-x="1920"
     inkscape:window-y="24"
     inkscape:window-maximized="1"
     inkscape:snap-bbox-midpoints="true"
     fit-margin-top="0"
     fit-margin-left="0"
     fit-margin-right="0"
     fit-margin-bottom="0" />
  <metadata
     id="metadata7">
    <rdf:RDF>
      <cc:Work
         rdf:about="">
        <dc:format>image/svg+xml</dc:format>
        <dc:type
           rdf:resource="http://purl.org/dc/dcmitype/StillImage" />
        <dc:title></dc:title>
      </cc:Work>
    </rdf:RDF>
  </metadata>
  <g
     inkscape:label="Layer 1"
     inkscape:groupmode="layer"
     id="layer1"
     transform="translate(-99.314507,-261.12326)">
    <path
       style="opacity:1;fill:#ececec;fill-opacity:1;fill-rule:nonzero;stroke:none;stroke-width:0.35433072;stroke-linecap:butt;stroke-miterlimit:4;stroke-dasharray:none;stroke-dashoffset:0;stroke-opacity:1"
       d="m 185.02879,261.12326 347.78987,0 c 47.48572,0 85.71429,38.22857 85.71429,85.71429 l 0,347.78987 c 0,47.48571 -38.22857,85.71429 -85.71429,85.71429 l -347.78987,0 c -47.48571,0 -85.714283,-38.22858 -85.714283,-85.71429 l 0,-347.78987 c 0,-47.48572 38.228573,-85.71429 85.714283,-85.71429 z"
       id="rect83972"
       inkscape:connector-curvature="0" />
    <path
       style="opacity:1;fill:#0000ff;fill-opacity:1;fill-rule:nonzero;stroke:none;stroke-width:0.35433072;stroke-linecap:butt;stroke-miterlimit:4;stroke-dasharray:none;stroke-dashoffset:0;stroke-opacity:1"
       d="m 501.94221,343.65892 c 0,0 -5.1763,4.2696 -8.3186,4.4794 -2.146,0.1432 -6.0379,-2.2776 -6.0379,-2.2776 0,0 -0.9959,4.0881 -1.6946,6.0689 -1.0011,2.8377 -1.7941,5.8607 -3.5625,8.2953 -2.0783,2.8612 -11.7143,6.9675 -14.7353,8.8057 -3.1007,1.8867 -13.5732,5.349 -17.1675,5.8539 -2.8111,0.3949 -21.7474,1.5941 -21.7474,1.5941 0,0 -9.2146,5.5356 -11.2084,6.6209 -1.7637,0.9601 -3.6175,1.8844 -5.5957,2.2296 -2.1878,0.3818 -6.0738,0.8362 -9.4256,0.9154 l 0,-7.8084 c 0,-4.3857 -3.3754,-7.9165 -7.5688,-7.9165 l -72.0298,0 c -4.1935,0 -7.5687,3.5308 -7.5687,7.9165 l 0,9.5339 c -3.6364,0.3269 -9.6866,-0.3313 -12.6341,-0.8457 -1.9782,-0.3453 -3.8319,-1.2696 -5.5956,-2.2297 -1.9939,-1.0852 -11.2085,-6.6208 -11.2085,-6.6208 0,0 -18.9347,-1.1992 -21.7458,-1.5942 -3.5943,-0.5048 -14.0668,-3.9672 -17.1675,-5.8539 -3.021,-1.8382 -12.6571,-5.946 -14.7353,-8.8072 -1.7685,-2.4346 -2.5615,-5.456 -3.5625,-8.2938 -0.6987,-1.9808 -1.6962,-6.0688 -1.6962,-6.0688 0,0 -3.8919,2.4192 -6.0379,2.276 -3.1423,-0.2098 -8.317,-4.4778 -8.317,-4.4778 0,0 4.4249,13.7649 8.3866,19.7032 4.5335,6.7953 17.2947,14.517 23.8935,19.3322 8.1559,5.9517 43.0404,18.8275 52.7487,21.6005 4.1035,1.1045 10.8139,2.0007 17.6716,2.7105 l 0,15.544 a 140.25407,140.25407 0 0 0 -93.8283,105.1557 l -16.6882,0 0,-49.0888 -16.8304,0 0,154.2802 16.8304,0 0,-49.0889 16.8304,0 a 140.25407,140.25407 0 0 0 137.2689,112.2034 140.25407,140.25407 0 0 0 137.388,-112.7369 l 0,0.5335 16.8304,0 0,49.0889 16.8304,0 0,-154.2802 -16.8304,0 0,49.0888 -16.8072,0 a 140.25407,140.25407 0 0 0 -93.8267,-105.0707 l 0,-17.0608 c 5.2777,-0.9385 10.3326,-2.0026 14.4647,-3.0723 9.7084,-2.773 44.5912,-15.6503 52.7472,-21.602 6.5987,-4.8152 19.3599,-12.5354 23.8934,-19.3307 3.9617,-5.9383 8.3882,-19.7048 8.3882,-19.7048 z"
       id="path83974"
       inkscape:connector-curvature="0" />
    <path
       inkscape:connector-curvature="0"
       d="m 419.64745,503.47554 c -13.99247,-14.04089 -33.3108,-22.75593 -54.71106,-22.75593 -42.80051,0 -77.37015,34.66648 -77.37015,77.46699 0,42.80051 34.56964,77.46699 77.37015,77.46699 36.07057,0 66.2827,-24.6926 74.85248,-58.10024 l -20.14142,0 c -7.98878,22.56226 -29.38903,38.73349 -54.71106,38.73349 -32.10038,0 -58.10024,-25.99985 -58.10024,-58.10024 0,-32.10038 25.99986,-58.10024 58.10024,-58.10024 16.02599,0 30.4058,6.68153 40.91226,17.18799 l -31.22888,31.22888 67.78361,0 0,-67.78362 -22.75593,22.75593 z"
       style="fill:#ffffff;stroke:none;stroke-width:0.20653959"
       id="path164293" />
  </g>
</svg>
